<mxfile host="app.diagrams.net" modified="2021-10-19T02:25:28.845Z" agent="5.0 (Windows NT 10.0; Win64; x64) AppleWebKit/537.36 (KHTML, like Gecko) Chrome/90.0.4430.212 Safari/537.36" etag="1yYxMHyid_X84QNxw6E9" version="15.4.3" type="github" pages="7">
  <diagram id="rGBcGQrgIOmhusSkpEhY" name="Page-1">
    <mxGraphModel dx="1988" dy="2198" grid="1" gridSize="10" guides="1" tooltips="1" connect="1" arrows="1" fold="1" page="1" pageScale="1" pageWidth="827" pageHeight="1169" math="0" shadow="0">
      <root>
        <mxCell id="0" />
        <mxCell id="1" parent="0" />
        <mxCell id="j9WpY-2XVAiYxq_LJWDv-1" value="" style="rounded=0;whiteSpace=wrap;html=1;" parent="1" vertex="1">
          <mxGeometry x="695" y="443.5" width="10" height="43" as="geometry" />
        </mxCell>
        <mxCell id="TzOcwmSmpLNL7cRONvy3-11" style="edgeStyle=none;rounded=0;orthogonalLoop=1;jettySize=auto;html=1;exitX=1;exitY=0.5;exitDx=0;exitDy=0;fontSize=14;startArrow=classic;startFill=1;strokeWidth=1;" parent="1" source="k5ek-Dyfz73bsxwR2uP5-25" target="ZYKwngdqUfYdTMZEAyLj-9" edge="1">
          <mxGeometry relative="1" as="geometry" />
        </mxCell>
        <mxCell id="TzOcwmSmpLNL7cRONvy3-13" value="定时器操作" style="edgeLabel;html=1;align=center;verticalAlign=middle;resizable=0;points=[];fontSize=14;" parent="TzOcwmSmpLNL7cRONvy3-11" vertex="1" connectable="0">
          <mxGeometry x="-0.2867" y="3" relative="1" as="geometry">
            <mxPoint x="14" y="3" as="offset" />
          </mxGeometry>
        </mxCell>
        <mxCell id="k5ek-Dyfz73bsxwR2uP5-25" value="&lt;b&gt;&lt;font style=&quot;font-size: 14px&quot;&gt;Funcsvr_Timer&lt;/font&gt;&lt;/b&gt;" style="rounded=1;whiteSpace=wrap;html=1;dashed=1;dashPattern=1 1;align=center;" parent="1" vertex="1">
          <mxGeometry x="740" y="65" width="120" height="90" as="geometry" />
        </mxCell>
        <mxCell id="k5ek-Dyfz73bsxwR2uP5-2" value="" style="rounded=0;whiteSpace=wrap;html=1;" parent="1" vertex="1">
          <mxGeometry x="32.25" y="-60" width="340" height="320" as="geometry" />
        </mxCell>
        <mxCell id="k5ek-Dyfz73bsxwR2uP5-13" value="" style="rounded=1;whiteSpace=wrap;html=1;dashed=1;dashPattern=1 1;" parent="1" vertex="1">
          <mxGeometry x="70" y="-25" width="260" height="85" as="geometry" />
        </mxCell>
        <mxCell id="C6_V7AmvbbiP25uf1EMG-6" value="ZSet" style="rounded=1;whiteSpace=wrap;html=1;" parent="1" vertex="1">
          <mxGeometry x="83.75" y="-10" width="106.25" height="40" as="geometry" />
        </mxCell>
        <mxCell id="ZYKwngdqUfYdTMZEAyLj-2" value="&lt;b&gt;&lt;font style=&quot;font-size: 18px&quot;&gt;Redis&lt;/font&gt;&lt;/b&gt;" style="text;html=1;strokeColor=none;fillColor=none;align=center;verticalAlign=middle;whiteSpace=wrap;rounded=0;" parent="1" vertex="1">
          <mxGeometry x="170" y="-55" width="60" height="30" as="geometry" />
        </mxCell>
        <mxCell id="ZYKwngdqUfYdTMZEAyLj-3" value="HashMap" style="rounded=1;whiteSpace=wrap;html=1;" parent="1" vertex="1">
          <mxGeometry x="213.5" y="-10" width="111" height="40" as="geometry" />
        </mxCell>
        <mxCell id="TzOcwmSmpLNL7cRONvy3-5" style="edgeStyle=none;rounded=0;orthogonalLoop=1;jettySize=auto;html=1;exitX=1;exitY=0.5;exitDx=0;exitDy=0;entryX=0;entryY=0.5;entryDx=0;entryDy=0;fontSize=14;startArrow=classic;startFill=1;strokeWidth=1;" parent="1" source="ZYKwngdqUfYdTMZEAyLj-4" target="ZYKwngdqUfYdTMZEAyLj-8" edge="1">
          <mxGeometry relative="1" as="geometry" />
        </mxCell>
        <mxCell id="TzOcwmSmpLNL7cRONvy3-6" value="task消息队列存取" style="edgeLabel;html=1;align=center;verticalAlign=middle;resizable=0;points=[];fontSize=14;" parent="TzOcwmSmpLNL7cRONvy3-5" vertex="1" connectable="0">
          <mxGeometry x="-0.1474" y="-2" relative="1" as="geometry">
            <mxPoint x="9" y="-2" as="offset" />
          </mxGeometry>
        </mxCell>
        <mxCell id="ZYKwngdqUfYdTMZEAyLj-4" value="&lt;b&gt;buckid分配消息队列List&lt;/b&gt;" style="rounded=1;whiteSpace=wrap;html=1;" parent="1" vertex="1">
          <mxGeometry x="74.5" y="80" width="255.5" height="60" as="geometry" />
        </mxCell>
        <mxCell id="ZYKwngdqUfYdTMZEAyLj-5" value="&lt;b&gt;定时器到期消息队列List&lt;/b&gt;" style="rounded=1;whiteSpace=wrap;html=1;" parent="1" vertex="1">
          <mxGeometry x="74.5" y="170" width="255.5" height="60" as="geometry" />
        </mxCell>
        <mxCell id="ZYKwngdqUfYdTMZEAyLj-7" value="&lt;b&gt;定时器存储结构&lt;/b&gt;" style="text;html=1;strokeColor=none;fillColor=none;align=center;verticalAlign=middle;whiteSpace=wrap;rounded=0;" parent="1" vertex="1">
          <mxGeometry x="150" y="30" width="100" height="30" as="geometry" />
        </mxCell>
        <mxCell id="TzOcwmSmpLNL7cRONvy3-10" value="" style="edgeStyle=none;rounded=0;orthogonalLoop=1;jettySize=auto;html=1;fontSize=14;startArrow=classic;startFill=1;strokeWidth=1;" parent="1" source="ZYKwngdqUfYdTMZEAyLj-8" target="k5ek-Dyfz73bsxwR2uP5-25" edge="1">
          <mxGeometry relative="1" as="geometry" />
        </mxCell>
        <mxCell id="TzOcwmSmpLNL7cRONvy3-12" value="redis操作" style="edgeLabel;html=1;align=center;verticalAlign=middle;resizable=0;points=[];fontSize=14;" parent="TzOcwmSmpLNL7cRONvy3-10" vertex="1" connectable="0">
          <mxGeometry x="-0.2367" y="-3" relative="1" as="geometry">
            <mxPoint x="12" y="-3" as="offset" />
          </mxGeometry>
        </mxCell>
        <mxCell id="ZYKwngdqUfYdTMZEAyLj-8" value="&lt;b&gt;&lt;font style=&quot;font-size: 14px&quot;&gt;Funcsvr_Redis&lt;/font&gt;&lt;/b&gt;" style="rounded=1;whiteSpace=wrap;html=1;dashed=1;dashPattern=1 1;align=center;" parent="1" vertex="1">
          <mxGeometry x="520" y="65" width="120" height="90" as="geometry" />
        </mxCell>
        <mxCell id="ZYKwngdqUfYdTMZEAyLj-9" value="&lt;b&gt;&lt;font style=&quot;font-size: 14px&quot;&gt;&lt;font&gt;Funcsvr_&lt;/font&gt;firebasenotify&lt;/font&gt;&lt;/b&gt;" style="rounded=1;whiteSpace=wrap;html=1;dashed=1;dashPattern=1 1;align=center;" parent="1" vertex="1">
          <mxGeometry x="980" y="65" width="170" height="90" as="geometry" />
        </mxCell>
        <mxCell id="TzOcwmSmpLNL7cRONvy3-1" value="" style="endArrow=classic;html=1;entryX=0;entryY=0.5;entryDx=0;entryDy=0;startArrow=classic;startFill=1;" parent="1" target="ZYKwngdqUfYdTMZEAyLj-8" edge="1">
          <mxGeometry width="50" height="50" relative="1" as="geometry">
            <mxPoint x="330" y="9.5" as="sourcePoint" />
            <mxPoint x="510" y="9.5" as="targetPoint" />
          </mxGeometry>
        </mxCell>
        <mxCell id="TzOcwmSmpLNL7cRONvy3-4" value="&lt;span style=&quot;background-color: rgb(248 , 249 , 250)&quot;&gt;定时器存取、竞主&lt;/span&gt;" style="edgeLabel;html=1;align=center;verticalAlign=middle;resizable=0;points=[];fontSize=14;" parent="TzOcwmSmpLNL7cRONvy3-1" vertex="1" connectable="0">
          <mxGeometry x="0.1248" relative="1" as="geometry">
            <mxPoint x="-17" y="-16" as="offset" />
          </mxGeometry>
        </mxCell>
        <mxCell id="TzOcwmSmpLNL7cRONvy3-8" value="" style="endArrow=classic;html=1;entryX=0;entryY=0.5;entryDx=0;entryDy=0;startArrow=classic;startFill=1;" parent="1" target="ZYKwngdqUfYdTMZEAyLj-8" edge="1">
          <mxGeometry width="50" height="50" relative="1" as="geometry">
            <mxPoint x="330" y="200.00000000000023" as="sourcePoint" />
            <mxPoint x="520" y="300.5" as="targetPoint" />
          </mxGeometry>
        </mxCell>
        <mxCell id="TzOcwmSmpLNL7cRONvy3-9" value="&lt;span style=&quot;background-color: rgb(248 , 249 , 250)&quot;&gt;到期定时器消息队列存取&lt;/span&gt;" style="edgeLabel;html=1;align=center;verticalAlign=middle;resizable=0;points=[];fontSize=14;" parent="TzOcwmSmpLNL7cRONvy3-8" vertex="1" connectable="0">
          <mxGeometry x="0.1248" relative="1" as="geometry">
            <mxPoint x="-7" y="21" as="offset" />
          </mxGeometry>
        </mxCell>
        <mxCell id="j9WpY-2XVAiYxq_LJWDv-2" value="firebasenotify" style="rounded=0;whiteSpace=wrap;html=1;" parent="1" vertex="1">
          <mxGeometry x="130" y="340" width="80" height="40" as="geometry" />
        </mxCell>
        <mxCell id="j9WpY-2XVAiYxq_LJWDv-3" value="" style="endArrow=none;dashed=1;html=1;entryX=0.5;entryY=1;entryDx=0;entryDy=0;" parent="1" target="j9WpY-2XVAiYxq_LJWDv-2" edge="1">
          <mxGeometry width="50" height="50" relative="1" as="geometry">
            <mxPoint x="170" y="1150" as="sourcePoint" />
            <mxPoint x="180" y="450" as="targetPoint" />
          </mxGeometry>
        </mxCell>
        <mxCell id="j9WpY-2XVAiYxq_LJWDv-4" value="Timer" style="rounded=0;whiteSpace=wrap;html=1;" parent="1" vertex="1">
          <mxGeometry x="372.25" y="340" width="80" height="40" as="geometry" />
        </mxCell>
        <mxCell id="j9WpY-2XVAiYxq_LJWDv-5" value="ZSet(Redis)" style="rounded=0;whiteSpace=wrap;html=1;" parent="1" vertex="1">
          <mxGeometry x="660" y="340" width="80" height="40" as="geometry" />
        </mxCell>
        <mxCell id="j9WpY-2XVAiYxq_LJWDv-8" value="" style="endArrow=none;dashed=1;html=1;entryX=0.5;entryY=1;entryDx=0;entryDy=0;" parent="1" edge="1">
          <mxGeometry width="50" height="50" relative="1" as="geometry">
            <mxPoint x="412" y="1150" as="sourcePoint" />
            <mxPoint x="411.96000000000004" y="380" as="targetPoint" />
          </mxGeometry>
        </mxCell>
        <mxCell id="j9WpY-2XVAiYxq_LJWDv-13" value="" style="endArrow=classic;html=1;dashed=1;" parent="1" edge="1">
          <mxGeometry width="50" height="50" relative="1" as="geometry">
            <mxPoint x="170" y="410" as="sourcePoint" />
            <mxPoint x="410" y="410" as="targetPoint" />
          </mxGeometry>
        </mxCell>
        <mxCell id="j9WpY-2XVAiYxq_LJWDv-14" value="设置定时器" style="edgeLabel;html=1;align=center;verticalAlign=middle;resizable=0;points=[];" parent="j9WpY-2XVAiYxq_LJWDv-13" vertex="1" connectable="0">
          <mxGeometry x="0.1378" y="-1" relative="1" as="geometry">
            <mxPoint x="-17" y="-1" as="offset" />
          </mxGeometry>
        </mxCell>
        <mxCell id="j9WpY-2XVAiYxq_LJWDv-15" value="" style="endArrow=classic;html=1;dashed=1;" parent="1" edge="1">
          <mxGeometry width="50" height="50" relative="1" as="geometry">
            <mxPoint x="414" y="442" as="sourcePoint" />
            <mxPoint x="700" y="442" as="targetPoint" />
            <Array as="points">
              <mxPoint x="414" y="441" />
            </Array>
          </mxGeometry>
        </mxCell>
        <mxCell id="j9WpY-2XVAiYxq_LJWDv-16" value="Zset设置定时器" style="edgeLabel;html=1;align=center;verticalAlign=middle;resizable=0;points=[];" parent="j9WpY-2XVAiYxq_LJWDv-15" vertex="1" connectable="0">
          <mxGeometry x="0.1378" y="-1" relative="1" as="geometry">
            <mxPoint x="-16" y="-2" as="offset" />
          </mxGeometry>
        </mxCell>
        <mxCell id="j9WpY-2XVAiYxq_LJWDv-27" value="" style="endArrow=classic;html=1;dashed=1;" parent="1" edge="1">
          <mxGeometry width="50" height="50" relative="1" as="geometry">
            <mxPoint x="407.75" y="510" as="sourcePoint" />
            <mxPoint x="170" y="510" as="targetPoint" />
          </mxGeometry>
        </mxCell>
        <mxCell id="j9WpY-2XVAiYxq_LJWDv-28" value="&lt;div style=&quot;text-align: center&quot;&gt;&lt;font face=&quot;helvetica&quot;&gt;&lt;span style=&quot;font-size: 11px ; background-color: rgb(255 , 255 , 255)&quot;&gt;定时器设置结果&lt;/span&gt;&lt;/font&gt;&lt;/div&gt;" style="text;whiteSpace=wrap;html=1;" parent="1" vertex="1">
          <mxGeometry x="243" y="500" width="120" height="20" as="geometry" />
        </mxCell>
        <mxCell id="j9WpY-2XVAiYxq_LJWDv-29" value="" style="endArrow=classic;html=1;dashed=1;" parent="1" edge="1">
          <mxGeometry width="50" height="50" relative="1" as="geometry">
            <mxPoint x="705" y="445" as="sourcePoint" />
            <mxPoint x="705" y="485" as="targetPoint" />
            <Array as="points">
              <mxPoint x="725" y="465" />
            </Array>
          </mxGeometry>
        </mxCell>
        <mxCell id="j9WpY-2XVAiYxq_LJWDv-30" value="&lt;div style=&quot;text-align: center&quot;&gt;&lt;font face=&quot;helvetica&quot;&gt;&lt;span style=&quot;font-size: 11px ; background-color: rgb(255 , 255 , 255)&quot;&gt;插入定时器&lt;/span&gt;&lt;/font&gt;&lt;/div&gt;" style="text;whiteSpace=wrap;html=1;" parent="1" vertex="1">
          <mxGeometry x="730" y="450" width="120" height="30" as="geometry" />
        </mxCell>
        <mxCell id="j9WpY-2XVAiYxq_LJWDv-42" value="" style="endArrow=classic;html=1;dashed=1;" parent="1" edge="1">
          <mxGeometry width="50" height="50" relative="1" as="geometry">
            <mxPoint x="700" y="487" as="sourcePoint" />
            <mxPoint x="414" y="487" as="targetPoint" />
            <Array as="points" />
          </mxGeometry>
        </mxCell>
        <mxCell id="j9WpY-2XVAiYxq_LJWDv-43" value="Zset设置定时器结果" style="edgeLabel;html=1;align=center;verticalAlign=middle;resizable=0;points=[];" parent="j9WpY-2XVAiYxq_LJWDv-42" vertex="1" connectable="0">
          <mxGeometry x="0.1378" y="-1" relative="1" as="geometry">
            <mxPoint x="23" y="1" as="offset" />
          </mxGeometry>
        </mxCell>
        <mxCell id="j9WpY-2XVAiYxq_LJWDv-50" value="1" style="ellipse;whiteSpace=wrap;html=1;aspect=fixed;fontSize=14;align=center;" parent="1" vertex="1">
          <mxGeometry x="86.88" y="420" width="20" height="20" as="geometry" />
        </mxCell>
        <mxCell id="j9WpY-2XVAiYxq_LJWDv-51" value="2" style="ellipse;whiteSpace=wrap;html=1;aspect=fixed;fontSize=14;align=center;" parent="1" vertex="1">
          <mxGeometry x="89.13" y="578.5" width="20" height="20" as="geometry" />
        </mxCell>
        <mxCell id="j9WpY-2XVAiYxq_LJWDv-52" value="" style="endArrow=classic;html=1;dashed=1;" parent="1" edge="1">
          <mxGeometry width="50" height="50" relative="1" as="geometry">
            <mxPoint x="870" y="586" as="sourcePoint" />
            <mxPoint x="414" y="586" as="targetPoint" />
            <Array as="points" />
          </mxGeometry>
        </mxCell>
        <mxCell id="j9WpY-2XVAiYxq_LJWDv-53" value="Timer竞主结果" style="edgeLabel;html=1;align=center;verticalAlign=middle;resizable=0;points=[];" parent="j9WpY-2XVAiYxq_LJWDv-52" vertex="1" connectable="0">
          <mxGeometry x="0.1378" y="-1" relative="1" as="geometry">
            <mxPoint x="19" as="offset" />
          </mxGeometry>
        </mxCell>
        <mxCell id="j9WpY-2XVAiYxq_LJWDv-54" value="" style="rounded=0;whiteSpace=wrap;html=1;" parent="1" vertex="1">
          <mxGeometry x="865" y="542" width="10" height="43" as="geometry" />
        </mxCell>
        <mxCell id="j9WpY-2XVAiYxq_LJWDv-56" value="" style="endArrow=classic;html=1;dashed=1;" parent="1" edge="1">
          <mxGeometry width="50" height="50" relative="1" as="geometry">
            <mxPoint x="875" y="545" as="sourcePoint" />
            <mxPoint x="875" y="585" as="targetPoint" />
            <Array as="points">
              <mxPoint x="895" y="565" />
            </Array>
          </mxGeometry>
        </mxCell>
        <mxCell id="j9WpY-2XVAiYxq_LJWDv-57" value="&lt;div style=&quot;text-align: center&quot;&gt;&lt;font face=&quot;helvetica&quot;&gt;&lt;span style=&quot;font-size: 11px ; background-color: rgb(255 , 255 , 255)&quot;&gt;抢竞主令牌&lt;/span&gt;&lt;/font&gt;&lt;/div&gt;" style="text;whiteSpace=wrap;html=1;" parent="1" vertex="1">
          <mxGeometry x="895" y="548.5" width="120" height="30" as="geometry" />
        </mxCell>
        <mxCell id="j9WpY-2XVAiYxq_LJWDv-60" value="" style="endArrow=classic;html=1;dashed=1;" parent="1" edge="1">
          <mxGeometry width="50" height="50" relative="1" as="geometry">
            <mxPoint x="1050" y="668" as="sourcePoint" />
            <mxPoint x="414" y="668" as="targetPoint" />
            <Array as="points" />
          </mxGeometry>
        </mxCell>
        <mxCell id="j9WpY-2XVAiYxq_LJWDv-61" value="写bucket消息队列结果" style="edgeLabel;html=1;align=center;verticalAlign=middle;resizable=0;points=[];" parent="j9WpY-2XVAiYxq_LJWDv-60" vertex="1" connectable="0">
          <mxGeometry x="0.1378" y="-1" relative="1" as="geometry">
            <mxPoint x="72" y="1" as="offset" />
          </mxGeometry>
        </mxCell>
        <mxCell id="j9WpY-2XVAiYxq_LJWDv-62" value="" style="rounded=0;whiteSpace=wrap;html=1;" parent="1" vertex="1">
          <mxGeometry x="1045" y="625" width="10" height="43" as="geometry" />
        </mxCell>
        <mxCell id="j9WpY-2XVAiYxq_LJWDv-64" value="" style="endArrow=classic;html=1;dashed=1;" parent="1" edge="1">
          <mxGeometry width="50" height="50" relative="1" as="geometry">
            <mxPoint x="1057" y="629" as="sourcePoint" />
            <mxPoint x="1057" y="669" as="targetPoint" />
            <Array as="points">
              <mxPoint x="1077" y="649" />
            </Array>
          </mxGeometry>
        </mxCell>
        <mxCell id="j9WpY-2XVAiYxq_LJWDv-65" value="&lt;div style=&quot;text-align: center&quot;&gt;&lt;font face=&quot;helvetica&quot;&gt;&lt;span style=&quot;font-size: 11px ; background-color: rgb(255 , 255 , 255)&quot;&gt;写bucket消息队列&lt;/span&gt;&lt;/font&gt;&lt;/div&gt;" style="text;whiteSpace=wrap;html=1;" parent="1" vertex="1">
          <mxGeometry x="1078" y="635" width="180" height="30" as="geometry" />
        </mxCell>
        <mxCell id="j9WpY-2XVAiYxq_LJWDv-71" value="" style="endArrow=classic;html=1;dashed=1;" parent="1" edge="1">
          <mxGeometry width="50" height="50" relative="1" as="geometry">
            <mxPoint x="1050" y="783" as="sourcePoint" />
            <mxPoint x="414" y="783.4300000000001" as="targetPoint" />
            <Array as="points" />
          </mxGeometry>
        </mxCell>
        <mxCell id="j9WpY-2XVAiYxq_LJWDv-72" value="返回bucket消息结果" style="edgeLabel;html=1;align=center;verticalAlign=middle;resizable=0;points=[];" parent="j9WpY-2XVAiYxq_LJWDv-71" vertex="1" connectable="0">
          <mxGeometry x="0.1378" y="-1" relative="1" as="geometry">
            <mxPoint x="72" y="1" as="offset" />
          </mxGeometry>
        </mxCell>
        <mxCell id="j9WpY-2XVAiYxq_LJWDv-73" value="" style="rounded=0;whiteSpace=wrap;html=1;" parent="1" vertex="1">
          <mxGeometry x="1045" y="740.0000000000001" width="10" height="43" as="geometry" />
        </mxCell>
        <mxCell id="j9WpY-2XVAiYxq_LJWDv-75" value="" style="endArrow=classic;html=1;dashed=1;" parent="1" edge="1">
          <mxGeometry width="50" height="50" relative="1" as="geometry">
            <mxPoint x="1057" y="741.0000000000001" as="sourcePoint" />
            <mxPoint x="1057" y="781.0000000000001" as="targetPoint" />
            <Array as="points">
              <mxPoint x="1077" y="761.0000000000001" />
            </Array>
          </mxGeometry>
        </mxCell>
        <mxCell id="j9WpY-2XVAiYxq_LJWDv-76" value="&lt;div style=&quot;text-align: center&quot;&gt;&lt;font face=&quot;helvetica&quot;&gt;&lt;span style=&quot;font-size: 11px ; background-color: rgb(255 , 255 , 255)&quot;&gt;取bucket消息队列&lt;/span&gt;&lt;/font&gt;&lt;/div&gt;" style="text;whiteSpace=wrap;html=1;" parent="1" vertex="1">
          <mxGeometry x="1077" y="746.5000000000001" width="180" height="30" as="geometry" />
        </mxCell>
        <mxCell id="j9WpY-2XVAiYxq_LJWDv-79" value="" style="rounded=0;whiteSpace=wrap;html=1;" parent="1" vertex="1">
          <mxGeometry x="695" y="831.4300000000001" width="10" height="43" as="geometry" />
        </mxCell>
        <mxCell id="j9WpY-2XVAiYxq_LJWDv-80" value="" style="endArrow=classic;html=1;dashed=1;" parent="1" edge="1">
          <mxGeometry width="50" height="50" relative="1" as="geometry">
            <mxPoint x="707" y="832.4300000000003" as="sourcePoint" />
            <mxPoint x="707" y="872.4300000000003" as="targetPoint" />
            <Array as="points">
              <mxPoint x="727" y="852.4300000000001" />
            </Array>
          </mxGeometry>
        </mxCell>
        <mxCell id="j9WpY-2XVAiYxq_LJWDv-81" value="&lt;div style=&quot;text-align: center&quot;&gt;&lt;font face=&quot;helvetica&quot;&gt;&lt;span style=&quot;font-size: 11px ; background-color: rgb(255 , 255 , 255)&quot;&gt;根据bucket取定时器&lt;/span&gt;&lt;/font&gt;&lt;/div&gt;" style="text;whiteSpace=wrap;html=1;" parent="1" vertex="1">
          <mxGeometry x="726" y="839.4300000000001" width="180" height="30" as="geometry" />
        </mxCell>
        <mxCell id="j9WpY-2XVAiYxq_LJWDv-82" value="" style="endArrow=classic;html=1;dashed=1;" parent="1" edge="1">
          <mxGeometry width="50" height="50" relative="1" as="geometry">
            <mxPoint x="700" y="874" as="sourcePoint" />
            <mxPoint x="414" y="874.4300000000002" as="targetPoint" />
            <Array as="points" />
          </mxGeometry>
        </mxCell>
        <mxCell id="j9WpY-2XVAiYxq_LJWDv-83" value="返回到期定时器结果" style="edgeLabel;html=1;align=center;verticalAlign=middle;resizable=0;points=[];" parent="j9WpY-2XVAiYxq_LJWDv-82" vertex="1" connectable="0">
          <mxGeometry x="0.1378" y="-1" relative="1" as="geometry">
            <mxPoint x="23" y="1" as="offset" />
          </mxGeometry>
        </mxCell>
        <mxCell id="j9WpY-2XVAiYxq_LJWDv-86" value="" style="endArrow=classic;html=1;dashed=1;" parent="1" edge="1">
          <mxGeometry width="50" height="50" relative="1" as="geometry">
            <mxPoint x="1050" y="960" as="sourcePoint" />
            <mxPoint x="414" y="960" as="targetPoint" />
            <Array as="points" />
          </mxGeometry>
        </mxCell>
        <mxCell id="j9WpY-2XVAiYxq_LJWDv-87" value="定时器写回结果" style="edgeLabel;html=1;align=center;verticalAlign=middle;resizable=0;points=[];" parent="j9WpY-2XVAiYxq_LJWDv-86" vertex="1" connectable="0">
          <mxGeometry x="0.1378" y="-1" relative="1" as="geometry">
            <mxPoint x="62" y="1" as="offset" />
          </mxGeometry>
        </mxCell>
        <mxCell id="j9WpY-2XVAiYxq_LJWDv-88" value="" style="rounded=0;whiteSpace=wrap;html=1;" parent="1" vertex="1">
          <mxGeometry x="1045" y="920" width="10" height="40" as="geometry" />
        </mxCell>
        <mxCell id="j9WpY-2XVAiYxq_LJWDv-89" value="" style="endArrow=classic;html=1;dashed=1;" parent="1" edge="1">
          <mxGeometry width="50" height="50" relative="1" as="geometry">
            <mxPoint x="1057" y="924" as="sourcePoint" />
            <mxPoint x="1057" y="960" as="targetPoint" />
            <Array as="points">
              <mxPoint x="1077" y="944" />
            </Array>
          </mxGeometry>
        </mxCell>
        <mxCell id="j9WpY-2XVAiYxq_LJWDv-90" value="&lt;div style=&quot;text-align: center&quot;&gt;&lt;font face=&quot;helvetica&quot;&gt;&lt;span style=&quot;font-size: 11px ; background-color: rgb(255 , 255 , 255)&quot;&gt;写定时器消息队列&lt;/span&gt;&lt;/font&gt;&lt;/div&gt;" style="text;whiteSpace=wrap;html=1;" parent="1" vertex="1">
          <mxGeometry x="1078" y="930" width="180" height="30" as="geometry" />
        </mxCell>
        <mxCell id="j9WpY-2XVAiYxq_LJWDv-91" value="3" style="ellipse;whiteSpace=wrap;html=1;aspect=fixed;fontSize=14;align=center;" parent="1" vertex="1">
          <mxGeometry x="89.13" y="837.9300000000001" width="20" height="20" as="geometry" />
        </mxCell>
        <mxCell id="j9WpY-2XVAiYxq_LJWDv-94" value="" style="rounded=0;whiteSpace=wrap;html=1;" parent="1" vertex="1">
          <mxGeometry x="1044" y="1050" width="10" height="40" as="geometry" />
        </mxCell>
        <mxCell id="j9WpY-2XVAiYxq_LJWDv-95" value="" style="endArrow=classic;html=1;dashed=1;" parent="1" edge="1">
          <mxGeometry width="50" height="50" relative="1" as="geometry">
            <mxPoint x="1056" y="1051" as="sourcePoint" />
            <mxPoint x="1050" y="1091" as="targetPoint" />
            <Array as="points">
              <mxPoint x="1076" y="1071" />
            </Array>
          </mxGeometry>
        </mxCell>
        <mxCell id="j9WpY-2XVAiYxq_LJWDv-96" value="&lt;div style=&quot;text-align: center&quot;&gt;&lt;font face=&quot;helvetica&quot;&gt;&lt;span style=&quot;font-size: 11px ; background-color: rgb(255 , 255 , 255)&quot;&gt;取定时器消息队列&lt;/span&gt;&lt;/font&gt;&lt;/div&gt;" style="text;whiteSpace=wrap;html=1;" parent="1" vertex="1">
          <mxGeometry x="1077" y="1060" width="180" height="30" as="geometry" />
        </mxCell>
        <mxCell id="j9WpY-2XVAiYxq_LJWDv-97" value="" style="endArrow=classic;html=1;dashed=1;" parent="1" edge="1">
          <mxGeometry width="50" height="50" relative="1" as="geometry">
            <mxPoint x="1050" y="1090" as="sourcePoint" />
            <mxPoint x="410" y="1090" as="targetPoint" />
            <Array as="points" />
          </mxGeometry>
        </mxCell>
        <mxCell id="j9WpY-2XVAiYxq_LJWDv-98" value="返回任务消息" style="edgeLabel;html=1;align=center;verticalAlign=middle;resizable=0;points=[];" parent="j9WpY-2XVAiYxq_LJWDv-97" vertex="1" connectable="0">
          <mxGeometry x="0.1378" y="-1" relative="1" as="geometry">
            <mxPoint x="74" y="1" as="offset" />
          </mxGeometry>
        </mxCell>
        <mxCell id="j9WpY-2XVAiYxq_LJWDv-99" value="" style="endArrow=classic;html=1;dashed=1;" parent="1" edge="1">
          <mxGeometry width="50" height="50" relative="1" as="geometry">
            <mxPoint x="410" y="1110" as="sourcePoint" />
            <mxPoint x="170" y="1110" as="targetPoint" />
            <Array as="points" />
          </mxGeometry>
        </mxCell>
        <mxCell id="j9WpY-2XVAiYxq_LJWDv-100" value="上发任务消息" style="edgeLabel;html=1;align=center;verticalAlign=middle;resizable=0;points=[];" parent="j9WpY-2XVAiYxq_LJWDv-99" vertex="1" connectable="0">
          <mxGeometry x="0.1378" y="-1" relative="1" as="geometry">
            <mxPoint x="7" y="1" as="offset" />
          </mxGeometry>
        </mxCell>
        <mxCell id="j9WpY-2XVAiYxq_LJWDv-101" value="4" style="ellipse;whiteSpace=wrap;html=1;aspect=fixed;fontSize=14;align=center;" parent="1" vertex="1">
          <mxGeometry x="89.13" y="1040" width="20" height="20" as="geometry" />
        </mxCell>
        <mxCell id="h_EUWLqbzuL_DFPCige9-18" value="Hash(Redis)" style="rounded=0;whiteSpace=wrap;html=1;" vertex="1" parent="1">
          <mxGeometry x="830" y="340" width="80" height="40" as="geometry" />
        </mxCell>
        <mxCell id="h_EUWLqbzuL_DFPCige9-20" value="List(Redis)" style="rounded=0;whiteSpace=wrap;html=1;" vertex="1" parent="1">
          <mxGeometry x="1010" y="340" width="80" height="40" as="geometry" />
        </mxCell>
        <mxCell id="h_EUWLqbzuL_DFPCige9-21" value="" style="endArrow=none;dashed=1;html=1;entryX=0.5;entryY=1;entryDx=0;entryDy=0;startArrow=none;" edge="1" parent="1">
          <mxGeometry width="50" height="50" relative="1" as="geometry">
            <mxPoint x="1050" y="1150" as="sourcePoint" />
            <mxPoint x="1049.58" y="390" as="targetPoint" />
          </mxGeometry>
        </mxCell>
        <mxCell id="h_EUWLqbzuL_DFPCige9-19" value="" style="endArrow=none;dashed=1;html=1;entryX=0.5;entryY=1;entryDx=0;entryDy=0;startArrow=none;" edge="1" parent="1">
          <mxGeometry width="50" height="50" relative="1" as="geometry">
            <mxPoint x="870" y="1140" as="sourcePoint" />
            <mxPoint x="869.58" y="380" as="targetPoint" />
          </mxGeometry>
        </mxCell>
        <mxCell id="j9WpY-2XVAiYxq_LJWDv-9" value="" style="endArrow=none;dashed=1;html=1;entryX=0.5;entryY=1;entryDx=0;entryDy=0;startArrow=none;" parent="1" edge="1">
          <mxGeometry width="50" height="50" relative="1" as="geometry">
            <mxPoint x="699.87" y="1150" as="sourcePoint" />
            <mxPoint x="699.58" y="380" as="targetPoint" />
          </mxGeometry>
        </mxCell>
        <mxCell id="j9WpY-2XVAiYxq_LJWDv-92" value="" style="endArrow=classic;html=1;dashed=1;" parent="1" edge="1">
          <mxGeometry width="50" height="50" relative="1" as="geometry">
            <mxPoint x="414" y="1050" as="sourcePoint" />
            <mxPoint x="1050" y="1050" as="targetPoint" />
            <Array as="points" />
          </mxGeometry>
        </mxCell>
        <mxCell id="j9WpY-2XVAiYxq_LJWDv-93" value="取任务消息队列" style="edgeLabel;html=1;align=center;verticalAlign=middle;resizable=0;points=[];" parent="j9WpY-2XVAiYxq_LJWDv-92" vertex="1" connectable="0">
          <mxGeometry x="0.1378" y="-1" relative="1" as="geometry">
            <mxPoint x="-17" y="-1" as="offset" />
          </mxGeometry>
        </mxCell>
        <mxCell id="h_EUWLqbzuL_DFPCige9-22" value="" style="line;strokeWidth=1;html=1;fontSize=14;align=center;dashed=1;dashPattern=1 2;" vertex="1" parent="1">
          <mxGeometry x="100" y="520" width="1110" height="10" as="geometry" />
        </mxCell>
        <mxCell id="h_EUWLqbzuL_DFPCige9-23" value="" style="line;strokeWidth=1;html=1;fontSize=14;align=center;dashed=1;dashPattern=1 2;" vertex="1" parent="1">
          <mxGeometry x="100" y="700" width="1110" height="10" as="geometry" />
        </mxCell>
        <mxCell id="h_EUWLqbzuL_DFPCige9-24" value="" style="line;strokeWidth=1;html=1;fontSize=14;align=center;dashed=1;dashPattern=1 2;" vertex="1" parent="1">
          <mxGeometry x="100" y="990" width="1110" height="10" as="geometry" />
        </mxCell>
        <mxCell id="h_EUWLqbzuL_DFPCige9-26" value="&lt;b&gt;写定时器&lt;br&gt;流程&lt;/b&gt;" style="text;html=1;align=center;verticalAlign=middle;resizable=0;points=[];autosize=1;strokeColor=none;fillColor=none;fontSize=14;" vertex="1" parent="1">
          <mxGeometry x="60" y="446.5" width="70" height="40" as="geometry" />
        </mxCell>
        <mxCell id="h_EUWLqbzuL_DFPCige9-27" value="&lt;b&gt;竞主、bucket分配&lt;br&gt;流程&lt;/b&gt;" style="text;html=1;align=center;verticalAlign=middle;resizable=0;points=[];autosize=1;strokeColor=none;fillColor=none;fontSize=14;" vertex="1" parent="1">
          <mxGeometry x="32.25" y="608.5" width="130" height="40" as="geometry" />
        </mxCell>
        <mxCell id="h_EUWLqbzuL_DFPCige9-29" value="&lt;b&gt;bucket处理流程&lt;/b&gt;" style="text;html=1;align=center;verticalAlign=middle;resizable=0;points=[];autosize=1;strokeColor=none;fillColor=none;fontSize=14;" vertex="1" parent="1">
          <mxGeometry x="39.13" y="874.4300000000001" width="120" height="20" as="geometry" />
        </mxCell>
        <mxCell id="h_EUWLqbzuL_DFPCige9-32" value="&lt;b&gt;到期定时器上发&lt;br&gt;流程&lt;br&gt;&lt;/b&gt;" style="text;html=1;align=center;verticalAlign=middle;resizable=0;points=[];autosize=1;strokeColor=none;fillColor=none;fontSize=14;" vertex="1" parent="1">
          <mxGeometry x="44.13" y="1060" width="110" height="40" as="geometry" />
        </mxCell>
        <mxCell id="j9WpY-2XVAiYxq_LJWDv-77" value="" style="endArrow=classic;html=1;dashed=1;entryX=0.75;entryY=0;entryDx=0;entryDy=0;" parent="1" edge="1" target="j9WpY-2XVAiYxq_LJWDv-79">
          <mxGeometry width="50" height="50" relative="1" as="geometry">
            <mxPoint x="414" y="831.0000000000002" as="sourcePoint" />
            <mxPoint x="700" y="831.0000000000002" as="targetPoint" />
            <Array as="points">
              <mxPoint x="414" y="830" />
            </Array>
          </mxGeometry>
        </mxCell>
        <mxCell id="j9WpY-2XVAiYxq_LJWDv-78" value="根据bucketId取定时器" style="edgeLabel;html=1;align=center;verticalAlign=middle;resizable=0;points=[];" parent="j9WpY-2XVAiYxq_LJWDv-77" vertex="1" connectable="0">
          <mxGeometry x="0.1378" y="-1" relative="1" as="geometry">
            <mxPoint x="-18" as="offset" />
          </mxGeometry>
        </mxCell>
        <mxCell id="j9WpY-2XVAiYxq_LJWDv-84" value="" style="endArrow=classic;html=1;dashed=1;" parent="1" edge="1">
          <mxGeometry width="50" height="50" relative="1" as="geometry">
            <mxPoint x="414" y="920" as="sourcePoint" />
            <mxPoint x="1050" y="920" as="targetPoint" />
            <Array as="points" />
          </mxGeometry>
        </mxCell>
        <mxCell id="j9WpY-2XVAiYxq_LJWDv-85" value="定时器写回redis任务消息队列" style="edgeLabel;html=1;align=center;verticalAlign=middle;resizable=0;points=[];" parent="j9WpY-2XVAiYxq_LJWDv-84" vertex="1" connectable="0">
          <mxGeometry x="0.1378" y="-1" relative="1" as="geometry">
            <mxPoint x="-16" y="-1" as="offset" />
          </mxGeometry>
        </mxCell>
        <mxCell id="j9WpY-2XVAiYxq_LJWDv-69" value="" style="endArrow=classic;html=1;dashed=1;" parent="1" edge="1">
          <mxGeometry width="50" height="50" relative="1" as="geometry">
            <mxPoint x="419" y="741.4300000000001" as="sourcePoint" />
            <mxPoint x="1050" y="741" as="targetPoint" />
            <Array as="points">
              <mxPoint x="419" y="740.4300000000001" />
            </Array>
          </mxGeometry>
        </mxCell>
        <mxCell id="j9WpY-2XVAiYxq_LJWDv-70" value="取bucket消息队列" style="edgeLabel;html=1;align=center;verticalAlign=middle;resizable=0;points=[];" parent="j9WpY-2XVAiYxq_LJWDv-69" vertex="1" connectable="0">
          <mxGeometry x="0.1378" y="-1" relative="1" as="geometry">
            <mxPoint x="-17" y="-2" as="offset" />
          </mxGeometry>
        </mxCell>
        <mxCell id="j9WpY-2XVAiYxq_LJWDv-58" value="" style="endArrow=classic;html=1;dashed=1;" parent="1" edge="1">
          <mxGeometry width="50" height="50" relative="1" as="geometry">
            <mxPoint x="414" y="626" as="sourcePoint" />
            <mxPoint x="1050" y="626" as="targetPoint" />
            <Array as="points">
              <mxPoint x="414" y="625" />
            </Array>
          </mxGeometry>
        </mxCell>
        <mxCell id="j9WpY-2XVAiYxq_LJWDv-59" value="竞主成功写bucket消息队列" style="edgeLabel;html=1;align=center;verticalAlign=middle;resizable=0;points=[];" parent="j9WpY-2XVAiYxq_LJWDv-58" vertex="1" connectable="0">
          <mxGeometry x="0.1378" y="-1" relative="1" as="geometry">
            <mxPoint x="-15" y="-2" as="offset" />
          </mxGeometry>
        </mxCell>
        <mxCell id="j9WpY-2XVAiYxq_LJWDv-47" value="" style="endArrow=classic;html=1;dashed=1;" parent="1" edge="1">
          <mxGeometry width="50" height="50" relative="1" as="geometry">
            <mxPoint x="414" y="542" as="sourcePoint" />
            <mxPoint x="870" y="542" as="targetPoint" />
            <Array as="points">
              <mxPoint x="414" y="541" />
            </Array>
          </mxGeometry>
        </mxCell>
        <mxCell id="j9WpY-2XVAiYxq_LJWDv-48" value="Timer竞主" style="edgeLabel;html=1;align=center;verticalAlign=middle;resizable=0;points=[];" parent="j9WpY-2XVAiYxq_LJWDv-47" vertex="1" connectable="0">
          <mxGeometry x="0.1378" y="-1" relative="1" as="geometry">
            <mxPoint x="-43" y="-5" as="offset" />
          </mxGeometry>
        </mxCell>
      </root>
    </mxGraphModel>
  </diagram>
  <diagram id="PEmC2TodR-nV4UOQX9Rt" name="Page-2">
    <mxGraphModel dx="1988" dy="1029" grid="1" gridSize="10" guides="1" tooltips="1" connect="1" arrows="1" fold="1" page="1" pageScale="1" pageWidth="827" pageHeight="1169" math="0" shadow="0">
      <root>
        <mxCell id="Zp6BvYDC10Cf_odQc7yV-0" />
        <mxCell id="Zp6BvYDC10Cf_odQc7yV-1" parent="Zp6BvYDC10Cf_odQc7yV-0" />
        <mxCell id="1OiYyYrqQoFwXktijt6X-0" value="IDCRecomSvr" style="rounded=1;whiteSpace=wrap;html=1;dashed=1;dashPattern=1 1;" parent="Zp6BvYDC10Cf_odQc7yV-1" vertex="1">
          <mxGeometry x="340" y="490" width="120" height="70" as="geometry" />
        </mxCell>
        <mxCell id="yJ574j1U2tbg6r-kMJlQ-0" value="zoneSvr" style="rounded=1;whiteSpace=wrap;html=1;dashed=1;dashPattern=1 1;" parent="Zp6BvYDC10Cf_odQc7yV-1" vertex="1">
          <mxGeometry x="60" y="495" width="120" height="60" as="geometry" />
        </mxCell>
      </root>
    </mxGraphModel>
  </diagram>
  <diagram id="optCAK0S5QUkbKN9IXHf" name="Page-3">
    <mxGraphModel dx="1988" dy="1085" grid="1" gridSize="10" guides="1" tooltips="1" connect="1" arrows="1" fold="1" page="1" pageScale="1" pageWidth="827" pageHeight="1169" math="0" shadow="0">
      <root>
        <mxCell id="Ee4rW0pa1NIke4W-k74a-0" />
        <mxCell id="Ee4rW0pa1NIke4W-k74a-1" parent="Ee4rW0pa1NIke4W-k74a-0" />
        <mxCell id="Ee4rW0pa1NIke4W-k74a-42" value="" style="rounded=0;whiteSpace=wrap;html=1;" parent="Ee4rW0pa1NIke4W-k74a-1" vertex="1">
          <mxGeometry x="620" y="487" width="10" height="43" as="geometry" />
        </mxCell>
        <mxCell id="Ee4rW0pa1NIke4W-k74a-2" value="Client" style="rounded=0;whiteSpace=wrap;html=1;" parent="Ee4rW0pa1NIke4W-k74a-1" vertex="1">
          <mxGeometry x="30" y="230" width="80" height="40" as="geometry" />
        </mxCell>
        <mxCell id="Ee4rW0pa1NIke4W-k74a-3" value="" style="endArrow=none;dashed=1;html=1;entryX=0.5;entryY=1;entryDx=0;entryDy=0;" parent="Ee4rW0pa1NIke4W-k74a-1" target="Ee4rW0pa1NIke4W-k74a-2" edge="1">
          <mxGeometry width="50" height="50" relative="1" as="geometry">
            <mxPoint x="70" y="700" as="sourcePoint" />
            <mxPoint x="80" y="340" as="targetPoint" />
          </mxGeometry>
        </mxCell>
        <mxCell id="Ee4rW0pa1NIke4W-k74a-4" value="SpeedSvr" style="rounded=0;whiteSpace=wrap;html=1;" parent="Ee4rW0pa1NIke4W-k74a-1" vertex="1">
          <mxGeometry x="170" y="230" width="80" height="40" as="geometry" />
        </mxCell>
        <mxCell id="Ee4rW0pa1NIke4W-k74a-6" value="ZoneSvr" style="rounded=0;whiteSpace=wrap;html=1;" parent="Ee4rW0pa1NIke4W-k74a-1" vertex="1">
          <mxGeometry x="310" y="230" width="80" height="40" as="geometry" />
        </mxCell>
        <mxCell id="Ee4rW0pa1NIke4W-k74a-7" value="IDCRecomSvr" style="rounded=0;whiteSpace=wrap;html=1;" parent="Ee4rW0pa1NIke4W-k74a-1" vertex="1">
          <mxGeometry x="440" y="230" width="90" height="40" as="geometry" />
        </mxCell>
        <mxCell id="Ee4rW0pa1NIke4W-k74a-8" value="MatchMgr" style="rounded=0;whiteSpace=wrap;html=1;" parent="Ee4rW0pa1NIke4W-k74a-1" vertex="1">
          <mxGeometry x="580" y="230" width="90" height="40" as="geometry" />
        </mxCell>
        <mxCell id="Ee4rW0pa1NIke4W-k74a-9" value="" style="endArrow=none;dashed=1;html=1;entryX=0.5;entryY=1;entryDx=0;entryDy=0;" parent="Ee4rW0pa1NIke4W-k74a-1" edge="1">
          <mxGeometry width="50" height="50" relative="1" as="geometry">
            <mxPoint x="210" y="700" as="sourcePoint" />
            <mxPoint x="209.71" y="270" as="targetPoint" />
          </mxGeometry>
        </mxCell>
        <mxCell id="Ee4rW0pa1NIke4W-k74a-10" value="" style="endArrow=none;dashed=1;html=1;entryX=0.5;entryY=1;entryDx=0;entryDy=0;" parent="Ee4rW0pa1NIke4W-k74a-1" edge="1">
          <mxGeometry width="50" height="50" relative="1" as="geometry">
            <mxPoint x="350" y="700" as="sourcePoint" />
            <mxPoint x="349.71000000000004" y="270" as="targetPoint" />
          </mxGeometry>
        </mxCell>
        <mxCell id="Ee4rW0pa1NIke4W-k74a-11" value="" style="endArrow=none;dashed=1;html=1;entryX=0.5;entryY=1;entryDx=0;entryDy=0;" parent="Ee4rW0pa1NIke4W-k74a-1" edge="1">
          <mxGeometry width="50" height="50" relative="1" as="geometry">
            <mxPoint x="485" y="700" as="sourcePoint" />
            <mxPoint x="484.71000000000026" y="270" as="targetPoint" />
          </mxGeometry>
        </mxCell>
        <mxCell id="Ee4rW0pa1NIke4W-k74a-13" value="" style="endArrow=classic;html=1;" parent="Ee4rW0pa1NIke4W-k74a-1" edge="1">
          <mxGeometry width="50" height="50" relative="1" as="geometry">
            <mxPoint x="70" y="330" as="sourcePoint" />
            <mxPoint x="210" y="330" as="targetPoint" />
          </mxGeometry>
        </mxCell>
        <mxCell id="Ee4rW0pa1NIke4W-k74a-14" value="测速" style="text;html=1;align=center;verticalAlign=middle;resizable=0;points=[];autosize=1;strokeColor=none;fillColor=none;" parent="Ee4rW0pa1NIke4W-k74a-1" vertex="1">
          <mxGeometry x="120" y="310" width="40" height="20" as="geometry" />
        </mxCell>
        <mxCell id="Ee4rW0pa1NIke4W-k74a-15" value="" style="endArrow=classic;html=1;dashed=1;" parent="Ee4rW0pa1NIke4W-k74a-1" edge="1">
          <mxGeometry width="50" height="50" relative="1" as="geometry">
            <mxPoint x="350" y="300" as="sourcePoint" />
            <mxPoint x="70" y="300" as="targetPoint" />
          </mxGeometry>
        </mxCell>
        <mxCell id="Ee4rW0pa1NIke4W-k74a-16" value="CS_CMD_GET_NET_TEST_INFO" style="edgeLabel;html=1;align=center;verticalAlign=middle;resizable=0;points=[];" parent="Ee4rW0pa1NIke4W-k74a-15" vertex="1" connectable="0">
          <mxGeometry x="0.1378" y="-1" relative="1" as="geometry">
            <mxPoint x="19" y="-9" as="offset" />
          </mxGeometry>
        </mxCell>
        <mxCell id="Ee4rW0pa1NIke4W-k74a-17" value="" style="endArrow=classic;html=1;dashed=1;" parent="Ee4rW0pa1NIke4W-k74a-1" edge="1">
          <mxGeometry width="50" height="50" relative="1" as="geometry">
            <mxPoint x="350" y="370" as="sourcePoint" />
            <mxPoint x="350" y="370" as="targetPoint" />
            <Array as="points">
              <mxPoint x="70" y="370" />
            </Array>
          </mxGeometry>
        </mxCell>
        <mxCell id="Ee4rW0pa1NIke4W-k74a-18" value="CS_CMD_UPLOAD_NET_TEST_RESULT" style="edgeLabel;html=1;align=center;verticalAlign=middle;resizable=0;points=[];" parent="Ee4rW0pa1NIke4W-k74a-17" vertex="1" connectable="0">
          <mxGeometry x="0.1378" y="-1" relative="1" as="geometry">
            <mxPoint x="111" y="-11" as="offset" />
          </mxGeometry>
        </mxCell>
        <mxCell id="Ee4rW0pa1NIke4W-k74a-21" value="" style="endArrow=classic;html=1;" parent="Ee4rW0pa1NIke4W-k74a-1" edge="1">
          <mxGeometry width="50" height="50" relative="1" as="geometry">
            <mxPoint x="349" y="390" as="sourcePoint" />
            <mxPoint x="479" y="390" as="targetPoint" />
          </mxGeometry>
        </mxCell>
        <mxCell id="Ee4rW0pa1NIke4W-k74a-22" value="&lt;span style=&quot;color: rgb(0 , 0 , 0) ; font-family: &amp;#34;helvetica&amp;#34; ; font-size: 12px ; font-style: normal ; font-weight: 400 ; letter-spacing: normal ; text-align: center ; text-indent: 0px ; text-transform: none ; word-spacing: 0px ; background-color: rgb(248 , 249 , 250) ; display: inline ; float: none&quot;&gt;更新ping信息&lt;/span&gt;" style="text;whiteSpace=wrap;html=1;" parent="Ee4rW0pa1NIke4W-k74a-1" vertex="1">
          <mxGeometry x="373" y="366" width="101" height="20" as="geometry" />
        </mxCell>
        <mxCell id="Ee4rW0pa1NIke4W-k74a-23" value="" style="endArrow=classic;html=1;" parent="Ee4rW0pa1NIke4W-k74a-1" edge="1">
          <mxGeometry width="50" height="50" relative="1" as="geometry">
            <mxPoint x="350" y="460" as="sourcePoint" />
            <mxPoint x="350" y="460" as="targetPoint" />
            <Array as="points">
              <mxPoint x="70" y="460" />
            </Array>
          </mxGeometry>
        </mxCell>
        <mxCell id="Ee4rW0pa1NIke4W-k74a-24" value="CS_CMD_MATCH_ROOM_CREATE" style="edgeLabel;html=1;align=center;verticalAlign=middle;resizable=0;points=[];" parent="Ee4rW0pa1NIke4W-k74a-23" vertex="1" connectable="0">
          <mxGeometry x="0.1378" y="-1" relative="1" as="geometry">
            <mxPoint x="101" y="-11" as="offset" />
          </mxGeometry>
        </mxCell>
        <mxCell id="Ee4rW0pa1NIke4W-k74a-25" value="" style="endArrow=classic;html=1;dashed=1;" parent="Ee4rW0pa1NIke4W-k74a-1" edge="1">
          <mxGeometry width="50" height="50" relative="1" as="geometry">
            <mxPoint x="479" y="430" as="sourcePoint" />
            <mxPoint x="349" y="430" as="targetPoint" />
          </mxGeometry>
        </mxCell>
        <mxCell id="Ee4rW0pa1NIke4W-k74a-26" value="&lt;div style=&quot;text-align: center&quot;&gt;&lt;span&gt;&lt;font face=&quot;helvetica&quot;&gt;IDC序列及权重&lt;/font&gt;&lt;/span&gt;&lt;/div&gt;" style="text;whiteSpace=wrap;html=1;" parent="Ee4rW0pa1NIke4W-k74a-1" vertex="1">
          <mxGeometry x="372" y="407" width="101" height="20" as="geometry" />
        </mxCell>
        <mxCell id="Ee4rW0pa1NIke4W-k74a-28" value="" style="endArrow=classic;html=1;" parent="Ee4rW0pa1NIke4W-k74a-1" edge="1">
          <mxGeometry width="50" height="50" relative="1" as="geometry">
            <mxPoint x="350" y="490" as="sourcePoint" />
            <mxPoint x="620" y="490" as="targetPoint" />
          </mxGeometry>
        </mxCell>
        <mxCell id="Ee4rW0pa1NIke4W-k74a-29" value="&lt;span style=&quot;color: rgb(0 , 0 , 0) ; font-family: &amp;#34;helvetica&amp;#34; ; font-size: 11px ; font-style: normal ; font-weight: 400 ; letter-spacing: normal ; text-align: center ; text-indent: 0px ; text-transform: none ; word-spacing: 0px ; background-color: rgb(255 , 255 , 255) ; display: inline ; float: none&quot;&gt;SS_CMD_MATCH_ROOM_CREATE&lt;/span&gt;" style="text;whiteSpace=wrap;html=1;" parent="Ee4rW0pa1NIke4W-k74a-1" vertex="1">
          <mxGeometry x="380" y="467" width="220" height="20" as="geometry" />
        </mxCell>
        <mxCell id="Ee4rW0pa1NIke4W-k74a-30" value="" style="endArrow=classic;html=1;dashed=1;" parent="Ee4rW0pa1NIke4W-k74a-1" edge="1">
          <mxGeometry width="50" height="50" relative="1" as="geometry">
            <mxPoint x="620" y="530" as="sourcePoint" />
            <mxPoint x="350" y="530" as="targetPoint" />
          </mxGeometry>
        </mxCell>
        <mxCell id="Ee4rW0pa1NIke4W-k74a-31" value="&lt;span style=&quot;color: rgb(0 , 0 , 0) ; font-family: &amp;#34;helvetica&amp;#34; ; font-size: 11px ; font-style: normal ; font-weight: 400 ; letter-spacing: normal ; text-align: center ; text-indent: 0px ; text-transform: none ; word-spacing: 0px ; background-color: rgb(255 , 255 , 255) ; display: inline ; float: none&quot;&gt;SS_CMD_MATCH_ROOM_CREATE&lt;/span&gt;" style="text;whiteSpace=wrap;html=1;" parent="Ee4rW0pa1NIke4W-k74a-1" vertex="1">
          <mxGeometry x="382" y="508" width="220" height="20" as="geometry" />
        </mxCell>
        <mxCell id="Ee4rW0pa1NIke4W-k74a-33" value="" style="endArrow=classic;html=1;dashed=1;" parent="Ee4rW0pa1NIke4W-k74a-1" edge="1">
          <mxGeometry width="50" height="50" relative="1" as="geometry">
            <mxPoint x="350" y="550" as="sourcePoint" />
            <mxPoint x="70" y="550" as="targetPoint" />
          </mxGeometry>
        </mxCell>
        <mxCell id="Ee4rW0pa1NIke4W-k74a-34" value="&lt;div style=&quot;text-align: center&quot;&gt;&lt;font face=&quot;helvetica&quot;&gt;&lt;span style=&quot;font-size: 11px ; background-color: rgb(255 , 255 , 255)&quot;&gt;CS_CMD_MATCH_ROOM_CREATE&lt;/span&gt;&lt;/font&gt;&lt;/div&gt;" style="text;whiteSpace=wrap;html=1;" parent="Ee4rW0pa1NIke4W-k74a-1" vertex="1">
          <mxGeometry x="110" y="528" width="220" height="20" as="geometry" />
        </mxCell>
        <mxCell id="Ee4rW0pa1NIke4W-k74a-39" value="" style="endArrow=classic;html=1;dashed=1;" parent="Ee4rW0pa1NIke4W-k74a-1" edge="1">
          <mxGeometry width="50" height="50" relative="1" as="geometry">
            <mxPoint x="630" y="490" as="sourcePoint" />
            <mxPoint x="630" y="530" as="targetPoint" />
            <Array as="points">
              <mxPoint x="650" y="510" />
            </Array>
          </mxGeometry>
        </mxCell>
        <mxCell id="Ee4rW0pa1NIke4W-k74a-40" value="&lt;div style=&quot;text-align: center&quot;&gt;&lt;font face=&quot;helvetica&quot;&gt;&lt;span style=&quot;font-size: 11px ; background-color: rgb(255 , 255 , 255)&quot;&gt;使用新的IDC序列匹配&lt;/span&gt;&lt;/font&gt;&lt;/div&gt;" style="text;whiteSpace=wrap;html=1;" parent="Ee4rW0pa1NIke4W-k74a-1" vertex="1">
          <mxGeometry x="650" y="498" width="120" height="30" as="geometry" />
        </mxCell>
        <mxCell id="Ee4rW0pa1NIke4W-k74a-12" value="" style="endArrow=none;dashed=1;html=1;entryX=0.5;entryY=1;entryDx=0;entryDy=0;startArrow=none;" parent="Ee4rW0pa1NIke4W-k74a-1" edge="1">
          <mxGeometry width="50" height="50" relative="1" as="geometry">
            <mxPoint x="625" y="540" as="sourcePoint" />
            <mxPoint x="624.7100000000003" y="270" as="targetPoint" />
          </mxGeometry>
        </mxCell>
        <mxCell id="Ee4rW0pa1NIke4W-k74a-44" value="" style="endArrow=classic;html=1;" parent="Ee4rW0pa1NIke4W-k74a-1" edge="1">
          <mxGeometry width="50" height="50" relative="1" as="geometry">
            <mxPoint x="70" y="600" as="sourcePoint" />
            <mxPoint x="350" y="600" as="targetPoint" />
          </mxGeometry>
        </mxCell>
        <mxCell id="Ee4rW0pa1NIke4W-k74a-45" value="&lt;div style=&quot;text-align: center&quot;&gt;&lt;font face=&quot;helvetica&quot;&gt;&lt;span style=&quot;font-size: 11px ; background-color: rgb(255 , 255 , 255)&quot;&gt;CS_CMD_MATCH_ROOM_START&lt;/span&gt;&lt;/font&gt;&lt;/div&gt;" style="text;whiteSpace=wrap;html=1;" parent="Ee4rW0pa1NIke4W-k74a-1" vertex="1">
          <mxGeometry x="110" y="578" width="220" height="20" as="geometry" />
        </mxCell>
        <mxCell id="Ee4rW0pa1NIke4W-k74a-46" value="" style="endArrow=classic;html=1;" parent="Ee4rW0pa1NIke4W-k74a-1" edge="1">
          <mxGeometry width="50" height="50" relative="1" as="geometry">
            <mxPoint x="352" y="620" as="sourcePoint" />
            <mxPoint x="620" y="620" as="targetPoint" />
          </mxGeometry>
        </mxCell>
        <mxCell id="Ee4rW0pa1NIke4W-k74a-47" value="&lt;div style=&quot;text-align: center&quot;&gt;&lt;font face=&quot;helvetica&quot;&gt;&lt;span style=&quot;font-size: 11px ; background-color: rgb(255 , 255 , 255)&quot;&gt;SS_CMD_MATCH_ROOM_START&lt;/span&gt;&lt;/font&gt;&lt;/div&gt;" style="text;whiteSpace=wrap;html=1;" parent="Ee4rW0pa1NIke4W-k74a-1" vertex="1">
          <mxGeometry x="380" y="598" width="220" height="20" as="geometry" />
        </mxCell>
        <mxCell id="Ee4rW0pa1NIke4W-k74a-48" value="" style="endArrow=classic;html=1;dashed=1;" parent="Ee4rW0pa1NIke4W-k74a-1" edge="1">
          <mxGeometry width="50" height="50" relative="1" as="geometry">
            <mxPoint x="620" y="660" as="sourcePoint" />
            <mxPoint x="350" y="660" as="targetPoint" />
          </mxGeometry>
        </mxCell>
        <mxCell id="Ee4rW0pa1NIke4W-k74a-49" value="&lt;div style=&quot;text-align: center&quot;&gt;&lt;font face=&quot;helvetica&quot;&gt;&lt;span style=&quot;font-size: 11px ; background-color: rgb(255 , 255 , 255)&quot;&gt;SS_CMD_MATCH_ROOM_START&lt;/span&gt;&lt;/font&gt;&lt;/div&gt;" style="text;whiteSpace=wrap;html=1;" parent="Ee4rW0pa1NIke4W-k74a-1" vertex="1">
          <mxGeometry x="380" y="637" width="220" height="20" as="geometry" />
        </mxCell>
        <mxCell id="Ee4rW0pa1NIke4W-k74a-50" value="" style="rounded=0;whiteSpace=wrap;html=1;" parent="Ee4rW0pa1NIke4W-k74a-1" vertex="1">
          <mxGeometry x="620" y="618" width="10" height="43" as="geometry" />
        </mxCell>
        <mxCell id="Ee4rW0pa1NIke4W-k74a-43" value="" style="endArrow=none;dashed=1;html=1;entryX=0.5;entryY=1;entryDx=0;entryDy=0;" parent="Ee4rW0pa1NIke4W-k74a-1" target="Ee4rW0pa1NIke4W-k74a-42" edge="1">
          <mxGeometry width="50" height="50" relative="1" as="geometry">
            <mxPoint x="625" y="700" as="sourcePoint" />
            <mxPoint x="624.7100000000003" y="270" as="targetPoint" />
          </mxGeometry>
        </mxCell>
        <mxCell id="Ee4rW0pa1NIke4W-k74a-51" value="" style="endArrow=classic;html=1;dashed=1;" parent="Ee4rW0pa1NIke4W-k74a-1" edge="1">
          <mxGeometry width="50" height="50" relative="1" as="geometry">
            <mxPoint x="630" y="618" as="sourcePoint" />
            <mxPoint x="630" y="658" as="targetPoint" />
            <Array as="points">
              <mxPoint x="650" y="638" />
            </Array>
          </mxGeometry>
        </mxCell>
        <mxCell id="Ee4rW0pa1NIke4W-k74a-52" value="&lt;div style=&quot;text-align: center&quot;&gt;&lt;font face=&quot;helvetica&quot;&gt;&lt;span style=&quot;font-size: 11px ; background-color: rgb(255 , 255 , 255)&quot;&gt;使用新权重进行战场分配&lt;/span&gt;&lt;/font&gt;&lt;/div&gt;" style="text;whiteSpace=wrap;html=1;" parent="Ee4rW0pa1NIke4W-k74a-1" vertex="1">
          <mxGeometry x="650" y="624.5" width="140" height="30" as="geometry" />
        </mxCell>
      </root>
    </mxGraphModel>
  </diagram>
  <diagram name="Page-4" id="Q-c-alIqYKAL9iLI0_3f">
    <mxGraphModel dx="1988" dy="1085" grid="1" gridSize="10" guides="1" tooltips="1" connect="1" arrows="1" fold="1" page="1" pageScale="1" pageWidth="827" pageHeight="1169" math="0" shadow="0">
      <root>
        <mxCell id="zOtWXWkk21EQWtIO0cw7-0" />
        <mxCell id="zOtWXWkk21EQWtIO0cw7-1" parent="zOtWXWkk21EQWtIO0cw7-0" />
        <mxCell id="zOtWXWkk21EQWtIO0cw7-3" value="Client" style="rounded=0;whiteSpace=wrap;html=1;" parent="zOtWXWkk21EQWtIO0cw7-1" vertex="1">
          <mxGeometry x="30" y="230" width="80" height="40" as="geometry" />
        </mxCell>
        <mxCell id="zOtWXWkk21EQWtIO0cw7-4" value="" style="endArrow=none;dashed=1;html=1;entryX=0.5;entryY=1;entryDx=0;entryDy=0;" parent="zOtWXWkk21EQWtIO0cw7-1" target="zOtWXWkk21EQWtIO0cw7-3" edge="1">
          <mxGeometry width="50" height="50" relative="1" as="geometry">
            <mxPoint x="70" y="560" as="sourcePoint" />
            <mxPoint x="80" y="340" as="targetPoint" />
          </mxGeometry>
        </mxCell>
        <mxCell id="zOtWXWkk21EQWtIO0cw7-5" value="SpeedSvr" style="rounded=0;whiteSpace=wrap;html=1;" parent="zOtWXWkk21EQWtIO0cw7-1" vertex="1">
          <mxGeometry x="210" y="230" width="80" height="40" as="geometry" />
        </mxCell>
        <mxCell id="zOtWXWkk21EQWtIO0cw7-6" value="ZoneSvr" style="rounded=0;whiteSpace=wrap;html=1;" parent="zOtWXWkk21EQWtIO0cw7-1" vertex="1">
          <mxGeometry x="390" y="230" width="80" height="40" as="geometry" />
        </mxCell>
        <mxCell id="zOtWXWkk21EQWtIO0cw7-7" value="IDCRecomSvr" style="rounded=0;whiteSpace=wrap;html=1;" parent="zOtWXWkk21EQWtIO0cw7-1" vertex="1">
          <mxGeometry x="576" y="230" width="90" height="40" as="geometry" />
        </mxCell>
        <mxCell id="zOtWXWkk21EQWtIO0cw7-9" value="" style="endArrow=none;dashed=1;html=1;entryX=0.5;entryY=1;entryDx=0;entryDy=0;" parent="zOtWXWkk21EQWtIO0cw7-1" edge="1">
          <mxGeometry width="50" height="50" relative="1" as="geometry">
            <mxPoint x="250" y="560" as="sourcePoint" />
            <mxPoint x="249.58" y="270" as="targetPoint" />
          </mxGeometry>
        </mxCell>
        <mxCell id="zOtWXWkk21EQWtIO0cw7-10" value="" style="endArrow=none;dashed=1;html=1;entryX=0.5;entryY=1;entryDx=0;entryDy=0;" parent="zOtWXWkk21EQWtIO0cw7-1" edge="1">
          <mxGeometry width="50" height="50" relative="1" as="geometry">
            <mxPoint x="430" y="560" as="sourcePoint" />
            <mxPoint x="429.58000000000004" y="270" as="targetPoint" />
          </mxGeometry>
        </mxCell>
        <mxCell id="zOtWXWkk21EQWtIO0cw7-11" value="" style="endArrow=none;dashed=1;html=1;entryX=0.5;entryY=1;entryDx=0;entryDy=0;" parent="zOtWXWkk21EQWtIO0cw7-1" edge="1">
          <mxGeometry width="50" height="50" relative="1" as="geometry">
            <mxPoint x="620" y="560" as="sourcePoint" />
            <mxPoint x="620.7100000000003" y="270" as="targetPoint" />
          </mxGeometry>
        </mxCell>
        <mxCell id="zOtWXWkk21EQWtIO0cw7-12" value="" style="endArrow=classic;html=1;" parent="zOtWXWkk21EQWtIO0cw7-1" edge="1">
          <mxGeometry width="50" height="50" relative="1" as="geometry">
            <mxPoint x="430" y="360" as="sourcePoint" />
            <mxPoint x="620" y="360" as="targetPoint" />
          </mxGeometry>
        </mxCell>
        <mxCell id="zOtWXWkk21EQWtIO0cw7-13" value="ip测速" style="text;html=1;align=center;verticalAlign=middle;resizable=0;points=[];autosize=1;strokeColor=none;fillColor=none;" parent="zOtWXWkk21EQWtIO0cw7-1" vertex="1">
          <mxGeometry x="135" y="500" width="50" height="20" as="geometry" />
        </mxCell>
        <mxCell id="zOtWXWkk21EQWtIO0cw7-14" value="" style="endArrow=classic;html=1;" parent="zOtWXWkk21EQWtIO0cw7-1" edge="1">
          <mxGeometry width="50" height="50" relative="1" as="geometry">
            <mxPoint x="70" y="330" as="sourcePoint" />
            <mxPoint x="430" y="330" as="targetPoint" />
          </mxGeometry>
        </mxCell>
        <mxCell id="zOtWXWkk21EQWtIO0cw7-15" value="登录login" style="edgeLabel;html=1;align=center;verticalAlign=middle;resizable=0;points=[];" parent="zOtWXWkk21EQWtIO0cw7-14" vertex="1" connectable="0">
          <mxGeometry x="0.1378" y="-1" relative="1" as="geometry">
            <mxPoint x="-25" y="-11" as="offset" />
          </mxGeometry>
        </mxCell>
        <mxCell id="zOtWXWkk21EQWtIO0cw7-16" value="" style="endArrow=classic;html=1;dashed=1;" parent="zOtWXWkk21EQWtIO0cw7-1" edge="1">
          <mxGeometry width="50" height="50" relative="1" as="geometry">
            <mxPoint x="620" y="410" as="sourcePoint" />
            <mxPoint x="430" y="410" as="targetPoint" />
            <Array as="points">
              <mxPoint x="620" y="410" />
            </Array>
          </mxGeometry>
        </mxCell>
        <mxCell id="zOtWXWkk21EQWtIO0cw7-17" value="返回IDC序列" style="edgeLabel;html=1;align=center;verticalAlign=middle;resizable=0;points=[];" parent="zOtWXWkk21EQWtIO0cw7-16" vertex="1" connectable="0">
          <mxGeometry x="0.1378" y="-1" relative="1" as="geometry">
            <mxPoint x="-2" y="-9" as="offset" />
          </mxGeometry>
        </mxCell>
        <mxCell id="zOtWXWkk21EQWtIO0cw7-44" value="登录拉取IDC序列" style="edgeLabel;html=1;align=center;verticalAlign=middle;resizable=0;points=[];" parent="zOtWXWkk21EQWtIO0cw7-1" vertex="1" connectable="0">
          <mxGeometry x="270" y="330" as="geometry">
            <mxPoint x="244" y="16" as="offset" />
          </mxGeometry>
        </mxCell>
        <mxCell id="zOtWXWkk21EQWtIO0cw7-45" value="" style="endArrow=classic;html=1;dashed=1;" parent="zOtWXWkk21EQWtIO0cw7-1" edge="1">
          <mxGeometry width="50" height="50" relative="1" as="geometry">
            <mxPoint x="430" y="449.58" as="sourcePoint" />
            <mxPoint x="70" y="450" as="targetPoint" />
          </mxGeometry>
        </mxCell>
        <mxCell id="zOtWXWkk21EQWtIO0cw7-46" value="ipList下发" style="edgeLabel;html=1;align=center;verticalAlign=middle;resizable=0;points=[];" parent="zOtWXWkk21EQWtIO0cw7-45" vertex="1" connectable="0">
          <mxGeometry x="0.1378" y="-1" relative="1" as="geometry">
            <mxPoint x="25" y="-11" as="offset" />
          </mxGeometry>
        </mxCell>
        <mxCell id="zOtWXWkk21EQWtIO0cw7-47" value="" style="endArrow=classic;html=1;" parent="zOtWXWkk21EQWtIO0cw7-1" edge="1">
          <mxGeometry width="50" height="50" relative="1" as="geometry">
            <mxPoint x="70" y="520" as="sourcePoint" />
            <mxPoint x="250" y="520" as="targetPoint" />
          </mxGeometry>
        </mxCell>
      </root>
    </mxGraphModel>
  </diagram>
  <diagram id="nEywjwo5ZYPIQYifvZpE" name="Page-5">
    <mxGraphModel dx="1988" dy="2198" grid="1" gridSize="10" guides="1" tooltips="1" connect="1" arrows="1" fold="1" page="1" pageScale="1" pageWidth="827" pageHeight="1169" math="0" shadow="0">
      <root>
        <mxCell id="wUfcTAIQeB8_VYHqcbLX-0" />
        <mxCell id="wUfcTAIQeB8_VYHqcbLX-1" parent="wUfcTAIQeB8_VYHqcbLX-0" />
        <mxCell id="wUfcTAIQeB8_VYHqcbLX-2" style="edgeStyle=none;rounded=0;orthogonalLoop=1;jettySize=auto;html=1;exitX=1;exitY=0.5;exitDx=0;exitDy=0;fontSize=14;startArrow=classic;startFill=1;strokeWidth=1;" edge="1" parent="wUfcTAIQeB8_VYHqcbLX-1" source="wUfcTAIQeB8_VYHqcbLX-4" target="wUfcTAIQeB8_VYHqcbLX-18">
          <mxGeometry relative="1" as="geometry" />
        </mxCell>
        <mxCell id="wUfcTAIQeB8_VYHqcbLX-3" value="定时器操作" style="edgeLabel;html=1;align=center;verticalAlign=middle;resizable=0;points=[];fontSize=14;" vertex="1" connectable="0" parent="wUfcTAIQeB8_VYHqcbLX-2">
          <mxGeometry x="-0.2867" y="3" relative="1" as="geometry">
            <mxPoint x="14" y="3" as="offset" />
          </mxGeometry>
        </mxCell>
        <mxCell id="wUfcTAIQeB8_VYHqcbLX-4" value="&lt;b&gt;&lt;font style=&quot;font-size: 14px&quot;&gt;Funcsvr_Timer&lt;/font&gt;&lt;/b&gt;" style="rounded=1;whiteSpace=wrap;html=1;dashed=1;dashPattern=1 1;align=center;" vertex="1" parent="wUfcTAIQeB8_VYHqcbLX-1">
          <mxGeometry x="740" y="65" width="120" height="90" as="geometry" />
        </mxCell>
        <mxCell id="wUfcTAIQeB8_VYHqcbLX-5" value="" style="rounded=0;whiteSpace=wrap;html=1;" vertex="1" parent="wUfcTAIQeB8_VYHqcbLX-1">
          <mxGeometry x="32.25" y="-60" width="340" height="320" as="geometry" />
        </mxCell>
        <mxCell id="wUfcTAIQeB8_VYHqcbLX-6" value="" style="rounded=1;whiteSpace=wrap;html=1;dashed=1;dashPattern=1 1;" vertex="1" parent="wUfcTAIQeB8_VYHqcbLX-1">
          <mxGeometry x="70" y="-25" width="260" height="85" as="geometry" />
        </mxCell>
        <mxCell id="wUfcTAIQeB8_VYHqcbLX-7" value="ZSet" style="rounded=1;whiteSpace=wrap;html=1;" vertex="1" parent="wUfcTAIQeB8_VYHqcbLX-1">
          <mxGeometry x="83.75" y="-10" width="106.25" height="40" as="geometry" />
        </mxCell>
        <mxCell id="wUfcTAIQeB8_VYHqcbLX-8" value="&lt;b&gt;&lt;font style=&quot;font-size: 18px&quot;&gt;Redis&lt;/font&gt;&lt;/b&gt;" style="text;html=1;strokeColor=none;fillColor=none;align=center;verticalAlign=middle;whiteSpace=wrap;rounded=0;" vertex="1" parent="wUfcTAIQeB8_VYHqcbLX-1">
          <mxGeometry x="170" y="-55" width="60" height="30" as="geometry" />
        </mxCell>
        <mxCell id="wUfcTAIQeB8_VYHqcbLX-9" value="HashMap" style="rounded=1;whiteSpace=wrap;html=1;" vertex="1" parent="wUfcTAIQeB8_VYHqcbLX-1">
          <mxGeometry x="213.5" y="-10" width="111" height="40" as="geometry" />
        </mxCell>
        <mxCell id="wUfcTAIQeB8_VYHqcbLX-10" style="edgeStyle=none;rounded=0;orthogonalLoop=1;jettySize=auto;html=1;exitX=1;exitY=0.5;exitDx=0;exitDy=0;entryX=0;entryY=0.5;entryDx=0;entryDy=0;fontSize=14;startArrow=classic;startFill=1;strokeWidth=1;" edge="1" parent="wUfcTAIQeB8_VYHqcbLX-1" source="wUfcTAIQeB8_VYHqcbLX-12" target="wUfcTAIQeB8_VYHqcbLX-17">
          <mxGeometry relative="1" as="geometry" />
        </mxCell>
        <mxCell id="wUfcTAIQeB8_VYHqcbLX-11" value="task消息队列存取" style="edgeLabel;html=1;align=center;verticalAlign=middle;resizable=0;points=[];fontSize=14;" vertex="1" connectable="0" parent="wUfcTAIQeB8_VYHqcbLX-10">
          <mxGeometry x="-0.1474" y="-2" relative="1" as="geometry">
            <mxPoint x="9" y="-2" as="offset" />
          </mxGeometry>
        </mxCell>
        <mxCell id="wUfcTAIQeB8_VYHqcbLX-12" value="&lt;b&gt;buckid分配消息队列List&lt;/b&gt;" style="rounded=1;whiteSpace=wrap;html=1;" vertex="1" parent="wUfcTAIQeB8_VYHqcbLX-1">
          <mxGeometry x="74.5" y="80" width="255.5" height="60" as="geometry" />
        </mxCell>
        <mxCell id="wUfcTAIQeB8_VYHqcbLX-13" value="&lt;b&gt;定时器到期消息队列List&lt;/b&gt;" style="rounded=1;whiteSpace=wrap;html=1;" vertex="1" parent="wUfcTAIQeB8_VYHqcbLX-1">
          <mxGeometry x="74.5" y="170" width="255.5" height="60" as="geometry" />
        </mxCell>
        <mxCell id="wUfcTAIQeB8_VYHqcbLX-14" value="&lt;b&gt;定时器存储结构&lt;/b&gt;" style="text;html=1;strokeColor=none;fillColor=none;align=center;verticalAlign=middle;whiteSpace=wrap;rounded=0;" vertex="1" parent="wUfcTAIQeB8_VYHqcbLX-1">
          <mxGeometry x="150" y="30" width="100" height="30" as="geometry" />
        </mxCell>
        <mxCell id="wUfcTAIQeB8_VYHqcbLX-15" value="" style="edgeStyle=none;rounded=0;orthogonalLoop=1;jettySize=auto;html=1;fontSize=14;startArrow=classic;startFill=1;strokeWidth=1;" edge="1" parent="wUfcTAIQeB8_VYHqcbLX-1" source="wUfcTAIQeB8_VYHqcbLX-17" target="wUfcTAIQeB8_VYHqcbLX-4">
          <mxGeometry relative="1" as="geometry" />
        </mxCell>
        <mxCell id="wUfcTAIQeB8_VYHqcbLX-16" value="redis操作" style="edgeLabel;html=1;align=center;verticalAlign=middle;resizable=0;points=[];fontSize=14;" vertex="1" connectable="0" parent="wUfcTAIQeB8_VYHqcbLX-15">
          <mxGeometry x="-0.2367" y="-3" relative="1" as="geometry">
            <mxPoint x="12" y="-3" as="offset" />
          </mxGeometry>
        </mxCell>
        <mxCell id="wUfcTAIQeB8_VYHqcbLX-17" value="&lt;b&gt;&lt;font style=&quot;font-size: 14px&quot;&gt;Funcsvr_Redis&lt;/font&gt;&lt;/b&gt;" style="rounded=1;whiteSpace=wrap;html=1;dashed=1;dashPattern=1 1;align=center;" vertex="1" parent="wUfcTAIQeB8_VYHqcbLX-1">
          <mxGeometry x="520" y="65" width="120" height="90" as="geometry" />
        </mxCell>
        <mxCell id="wUfcTAIQeB8_VYHqcbLX-18" value="&lt;b&gt;&lt;font style=&quot;font-size: 14px&quot;&gt;&lt;font&gt;Funcsvr_&lt;/font&gt;firebasenotify&lt;/font&gt;&lt;/b&gt;" style="rounded=1;whiteSpace=wrap;html=1;dashed=1;dashPattern=1 1;align=center;" vertex="1" parent="wUfcTAIQeB8_VYHqcbLX-1">
          <mxGeometry x="980" y="65" width="170" height="90" as="geometry" />
        </mxCell>
        <mxCell id="wUfcTAIQeB8_VYHqcbLX-19" value="" style="endArrow=classic;html=1;entryX=0;entryY=0.5;entryDx=0;entryDy=0;startArrow=classic;startFill=1;" edge="1" parent="wUfcTAIQeB8_VYHqcbLX-1" target="wUfcTAIQeB8_VYHqcbLX-17">
          <mxGeometry width="50" height="50" relative="1" as="geometry">
            <mxPoint x="330" y="9.5" as="sourcePoint" />
            <mxPoint x="510" y="9.5" as="targetPoint" />
          </mxGeometry>
        </mxCell>
        <mxCell id="wUfcTAIQeB8_VYHqcbLX-20" value="&lt;span style=&quot;background-color: rgb(248 , 249 , 250)&quot;&gt;定时器存取、竞主&lt;/span&gt;" style="edgeLabel;html=1;align=center;verticalAlign=middle;resizable=0;points=[];fontSize=14;" vertex="1" connectable="0" parent="wUfcTAIQeB8_VYHqcbLX-19">
          <mxGeometry x="0.1248" relative="1" as="geometry">
            <mxPoint x="-17" y="-16" as="offset" />
          </mxGeometry>
        </mxCell>
        <mxCell id="wUfcTAIQeB8_VYHqcbLX-21" value="" style="endArrow=classic;html=1;entryX=0;entryY=0.5;entryDx=0;entryDy=0;startArrow=classic;startFill=1;" edge="1" parent="wUfcTAIQeB8_VYHqcbLX-1" target="wUfcTAIQeB8_VYHqcbLX-17">
          <mxGeometry width="50" height="50" relative="1" as="geometry">
            <mxPoint x="330" y="200" as="sourcePoint" />
            <mxPoint x="520" y="300.5" as="targetPoint" />
          </mxGeometry>
        </mxCell>
        <mxCell id="wUfcTAIQeB8_VYHqcbLX-22" value="&lt;span style=&quot;background-color: rgb(248 , 249 , 250)&quot;&gt;到期定时器消息队列存取&lt;/span&gt;" style="edgeLabel;html=1;align=center;verticalAlign=middle;resizable=0;points=[];fontSize=14;" vertex="1" connectable="0" parent="wUfcTAIQeB8_VYHqcbLX-21">
          <mxGeometry x="0.1248" relative="1" as="geometry">
            <mxPoint x="-7" y="21" as="offset" />
          </mxGeometry>
        </mxCell>
      </root>
    </mxGraphModel>
  </diagram>
  <diagram id="p4Gjr4YfQ5GrQv9rczPs" name="Page-6">
    <mxGraphModel dx="1988" dy="1029" grid="1" gridSize="10" guides="1" tooltips="1" connect="1" arrows="1" fold="1" page="1" pageScale="1" pageWidth="827" pageHeight="1169" math="0" shadow="0">
      <root>
        <mxCell id="2X6hgwf5qzT1hM49Ib9F-0" />
        <mxCell id="2X6hgwf5qzT1hM49Ib9F-1" parent="2X6hgwf5qzT1hM49Ib9F-0" />
        <mxCell id="2X6hgwf5qzT1hM49Ib9F-2" value="" style="rounded=0;whiteSpace=wrap;html=1;" vertex="1" parent="2X6hgwf5qzT1hM49Ib9F-1">
          <mxGeometry x="695" y="443.5" width="10" height="43" as="geometry" />
        </mxCell>
        <mxCell id="2X6hgwf5qzT1hM49Ib9F-3" value="firebasenotify" style="rounded=0;whiteSpace=wrap;html=1;" vertex="1" parent="2X6hgwf5qzT1hM49Ib9F-1">
          <mxGeometry x="130" y="340" width="80" height="40" as="geometry" />
        </mxCell>
        <mxCell id="2X6hgwf5qzT1hM49Ib9F-4" value="" style="endArrow=none;dashed=1;html=1;entryX=0.5;entryY=1;entryDx=0;entryDy=0;" edge="1" parent="2X6hgwf5qzT1hM49Ib9F-1" target="2X6hgwf5qzT1hM49Ib9F-3">
          <mxGeometry width="50" height="50" relative="1" as="geometry">
            <mxPoint x="170" y="1150" as="sourcePoint" />
            <mxPoint x="180" y="450" as="targetPoint" />
          </mxGeometry>
        </mxCell>
        <mxCell id="2X6hgwf5qzT1hM49Ib9F-5" value="Timer" style="rounded=0;whiteSpace=wrap;html=1;" vertex="1" parent="2X6hgwf5qzT1hM49Ib9F-1">
          <mxGeometry x="372.25" y="340" width="80" height="40" as="geometry" />
        </mxCell>
        <mxCell id="2X6hgwf5qzT1hM49Ib9F-6" value="ZSet(Redis)" style="rounded=0;whiteSpace=wrap;html=1;" vertex="1" parent="2X6hgwf5qzT1hM49Ib9F-1">
          <mxGeometry x="660" y="340" width="80" height="40" as="geometry" />
        </mxCell>
        <mxCell id="2X6hgwf5qzT1hM49Ib9F-7" value="" style="endArrow=none;dashed=1;html=1;entryX=0.5;entryY=1;entryDx=0;entryDy=0;" edge="1" parent="2X6hgwf5qzT1hM49Ib9F-1">
          <mxGeometry width="50" height="50" relative="1" as="geometry">
            <mxPoint x="412" y="1150" as="sourcePoint" />
            <mxPoint x="411.96000000000004" y="380" as="targetPoint" />
          </mxGeometry>
        </mxCell>
        <mxCell id="2X6hgwf5qzT1hM49Ib9F-8" value="" style="endArrow=classic;html=1;dashed=1;" edge="1" parent="2X6hgwf5qzT1hM49Ib9F-1">
          <mxGeometry width="50" height="50" relative="1" as="geometry">
            <mxPoint x="170" y="410" as="sourcePoint" />
            <mxPoint x="410" y="410" as="targetPoint" />
          </mxGeometry>
        </mxCell>
        <mxCell id="2X6hgwf5qzT1hM49Ib9F-9" value="设置定时器" style="edgeLabel;html=1;align=center;verticalAlign=middle;resizable=0;points=[];" vertex="1" connectable="0" parent="2X6hgwf5qzT1hM49Ib9F-8">
          <mxGeometry x="0.1378" y="-1" relative="1" as="geometry">
            <mxPoint x="-17" y="-1" as="offset" />
          </mxGeometry>
        </mxCell>
        <mxCell id="2X6hgwf5qzT1hM49Ib9F-10" value="" style="endArrow=classic;html=1;dashed=1;" edge="1" parent="2X6hgwf5qzT1hM49Ib9F-1">
          <mxGeometry width="50" height="50" relative="1" as="geometry">
            <mxPoint x="414" y="442" as="sourcePoint" />
            <mxPoint x="700" y="442" as="targetPoint" />
            <Array as="points">
              <mxPoint x="414" y="441" />
            </Array>
          </mxGeometry>
        </mxCell>
        <mxCell id="2X6hgwf5qzT1hM49Ib9F-11" value="Zset设置定时器" style="edgeLabel;html=1;align=center;verticalAlign=middle;resizable=0;points=[];" vertex="1" connectable="0" parent="2X6hgwf5qzT1hM49Ib9F-10">
          <mxGeometry x="0.1378" y="-1" relative="1" as="geometry">
            <mxPoint x="-16" y="-2" as="offset" />
          </mxGeometry>
        </mxCell>
        <mxCell id="2X6hgwf5qzT1hM49Ib9F-12" value="" style="endArrow=classic;html=1;dashed=1;" edge="1" parent="2X6hgwf5qzT1hM49Ib9F-1">
          <mxGeometry width="50" height="50" relative="1" as="geometry">
            <mxPoint x="407.75" y="510" as="sourcePoint" />
            <mxPoint x="170" y="510" as="targetPoint" />
          </mxGeometry>
        </mxCell>
        <mxCell id="2X6hgwf5qzT1hM49Ib9F-13" value="&lt;div style=&quot;text-align: center&quot;&gt;&lt;font face=&quot;helvetica&quot;&gt;&lt;span style=&quot;font-size: 11px ; background-color: rgb(255 , 255 , 255)&quot;&gt;定时器设置结果&lt;/span&gt;&lt;/font&gt;&lt;/div&gt;" style="text;whiteSpace=wrap;html=1;" vertex="1" parent="2X6hgwf5qzT1hM49Ib9F-1">
          <mxGeometry x="243" y="500" width="120" height="20" as="geometry" />
        </mxCell>
        <mxCell id="2X6hgwf5qzT1hM49Ib9F-14" value="" style="endArrow=classic;html=1;dashed=1;" edge="1" parent="2X6hgwf5qzT1hM49Ib9F-1">
          <mxGeometry width="50" height="50" relative="1" as="geometry">
            <mxPoint x="705" y="445" as="sourcePoint" />
            <mxPoint x="705" y="485" as="targetPoint" />
            <Array as="points">
              <mxPoint x="725" y="465" />
            </Array>
          </mxGeometry>
        </mxCell>
        <mxCell id="2X6hgwf5qzT1hM49Ib9F-15" value="&lt;div style=&quot;text-align: center&quot;&gt;&lt;font face=&quot;helvetica&quot;&gt;&lt;span style=&quot;font-size: 11px ; background-color: rgb(255 , 255 , 255)&quot;&gt;插入定时器&lt;/span&gt;&lt;/font&gt;&lt;/div&gt;" style="text;whiteSpace=wrap;html=1;" vertex="1" parent="2X6hgwf5qzT1hM49Ib9F-1">
          <mxGeometry x="730" y="450" width="120" height="30" as="geometry" />
        </mxCell>
        <mxCell id="2X6hgwf5qzT1hM49Ib9F-16" value="" style="endArrow=classic;html=1;dashed=1;" edge="1" parent="2X6hgwf5qzT1hM49Ib9F-1">
          <mxGeometry width="50" height="50" relative="1" as="geometry">
            <mxPoint x="700" y="487" as="sourcePoint" />
            <mxPoint x="414" y="487" as="targetPoint" />
            <Array as="points" />
          </mxGeometry>
        </mxCell>
        <mxCell id="2X6hgwf5qzT1hM49Ib9F-17" value="Zset设置定时器结果" style="edgeLabel;html=1;align=center;verticalAlign=middle;resizable=0;points=[];" vertex="1" connectable="0" parent="2X6hgwf5qzT1hM49Ib9F-16">
          <mxGeometry x="0.1378" y="-1" relative="1" as="geometry">
            <mxPoint x="23" y="1" as="offset" />
          </mxGeometry>
        </mxCell>
        <mxCell id="2X6hgwf5qzT1hM49Ib9F-18" value="1" style="ellipse;whiteSpace=wrap;html=1;aspect=fixed;fontSize=14;align=center;" vertex="1" parent="2X6hgwf5qzT1hM49Ib9F-1">
          <mxGeometry x="86.88" y="420" width="20" height="20" as="geometry" />
        </mxCell>
        <mxCell id="2X6hgwf5qzT1hM49Ib9F-19" value="2" style="ellipse;whiteSpace=wrap;html=1;aspect=fixed;fontSize=14;align=center;" vertex="1" parent="2X6hgwf5qzT1hM49Ib9F-1">
          <mxGeometry x="89.13" y="578.5" width="20" height="20" as="geometry" />
        </mxCell>
        <mxCell id="2X6hgwf5qzT1hM49Ib9F-20" value="" style="endArrow=classic;html=1;dashed=1;" edge="1" parent="2X6hgwf5qzT1hM49Ib9F-1">
          <mxGeometry width="50" height="50" relative="1" as="geometry">
            <mxPoint x="870" y="586" as="sourcePoint" />
            <mxPoint x="414" y="586" as="targetPoint" />
            <Array as="points" />
          </mxGeometry>
        </mxCell>
        <mxCell id="2X6hgwf5qzT1hM49Ib9F-21" value="Timer竞主结果" style="edgeLabel;html=1;align=center;verticalAlign=middle;resizable=0;points=[];" vertex="1" connectable="0" parent="2X6hgwf5qzT1hM49Ib9F-20">
          <mxGeometry x="0.1378" y="-1" relative="1" as="geometry">
            <mxPoint x="19" as="offset" />
          </mxGeometry>
        </mxCell>
        <mxCell id="2X6hgwf5qzT1hM49Ib9F-22" value="" style="rounded=0;whiteSpace=wrap;html=1;" vertex="1" parent="2X6hgwf5qzT1hM49Ib9F-1">
          <mxGeometry x="865" y="542" width="10" height="43" as="geometry" />
        </mxCell>
        <mxCell id="2X6hgwf5qzT1hM49Ib9F-23" value="" style="endArrow=classic;html=1;dashed=1;" edge="1" parent="2X6hgwf5qzT1hM49Ib9F-1">
          <mxGeometry width="50" height="50" relative="1" as="geometry">
            <mxPoint x="875" y="545" as="sourcePoint" />
            <mxPoint x="875" y="585" as="targetPoint" />
            <Array as="points">
              <mxPoint x="895" y="565" />
            </Array>
          </mxGeometry>
        </mxCell>
        <mxCell id="2X6hgwf5qzT1hM49Ib9F-24" value="&lt;div style=&quot;text-align: center&quot;&gt;&lt;font face=&quot;helvetica&quot;&gt;&lt;span style=&quot;font-size: 11px ; background-color: rgb(255 , 255 , 255)&quot;&gt;抢竞主令牌&lt;/span&gt;&lt;/font&gt;&lt;/div&gt;" style="text;whiteSpace=wrap;html=1;" vertex="1" parent="2X6hgwf5qzT1hM49Ib9F-1">
          <mxGeometry x="895" y="548.5" width="120" height="30" as="geometry" />
        </mxCell>
        <mxCell id="2X6hgwf5qzT1hM49Ib9F-25" value="" style="endArrow=classic;html=1;dashed=1;" edge="1" parent="2X6hgwf5qzT1hM49Ib9F-1">
          <mxGeometry width="50" height="50" relative="1" as="geometry">
            <mxPoint x="1050" y="668" as="sourcePoint" />
            <mxPoint x="414" y="668" as="targetPoint" />
            <Array as="points" />
          </mxGeometry>
        </mxCell>
        <mxCell id="2X6hgwf5qzT1hM49Ib9F-26" value="写bucket消息队列结果" style="edgeLabel;html=1;align=center;verticalAlign=middle;resizable=0;points=[];" vertex="1" connectable="0" parent="2X6hgwf5qzT1hM49Ib9F-25">
          <mxGeometry x="0.1378" y="-1" relative="1" as="geometry">
            <mxPoint x="72" y="1" as="offset" />
          </mxGeometry>
        </mxCell>
        <mxCell id="2X6hgwf5qzT1hM49Ib9F-27" value="" style="rounded=0;whiteSpace=wrap;html=1;" vertex="1" parent="2X6hgwf5qzT1hM49Ib9F-1">
          <mxGeometry x="1045" y="625" width="10" height="43" as="geometry" />
        </mxCell>
        <mxCell id="2X6hgwf5qzT1hM49Ib9F-28" value="" style="endArrow=classic;html=1;dashed=1;" edge="1" parent="2X6hgwf5qzT1hM49Ib9F-1">
          <mxGeometry width="50" height="50" relative="1" as="geometry">
            <mxPoint x="1057" y="629" as="sourcePoint" />
            <mxPoint x="1057" y="669" as="targetPoint" />
            <Array as="points">
              <mxPoint x="1077" y="649" />
            </Array>
          </mxGeometry>
        </mxCell>
        <mxCell id="2X6hgwf5qzT1hM49Ib9F-29" value="&lt;div style=&quot;text-align: center&quot;&gt;&lt;font face=&quot;helvetica&quot;&gt;&lt;span style=&quot;font-size: 11px ; background-color: rgb(255 , 255 , 255)&quot;&gt;写bucket消息队列&lt;/span&gt;&lt;/font&gt;&lt;/div&gt;" style="text;whiteSpace=wrap;html=1;" vertex="1" parent="2X6hgwf5qzT1hM49Ib9F-1">
          <mxGeometry x="1078" y="635" width="180" height="30" as="geometry" />
        </mxCell>
        <mxCell id="2X6hgwf5qzT1hM49Ib9F-30" value="" style="endArrow=classic;html=1;dashed=1;" edge="1" parent="2X6hgwf5qzT1hM49Ib9F-1">
          <mxGeometry width="50" height="50" relative="1" as="geometry">
            <mxPoint x="1050" y="783" as="sourcePoint" />
            <mxPoint x="414" y="783.4300000000003" as="targetPoint" />
            <Array as="points" />
          </mxGeometry>
        </mxCell>
        <mxCell id="2X6hgwf5qzT1hM49Ib9F-31" value="返回bucket消息结果" style="edgeLabel;html=1;align=center;verticalAlign=middle;resizable=0;points=[];" vertex="1" connectable="0" parent="2X6hgwf5qzT1hM49Ib9F-30">
          <mxGeometry x="0.1378" y="-1" relative="1" as="geometry">
            <mxPoint x="72" y="1" as="offset" />
          </mxGeometry>
        </mxCell>
        <mxCell id="2X6hgwf5qzT1hM49Ib9F-32" value="" style="rounded=0;whiteSpace=wrap;html=1;" vertex="1" parent="2X6hgwf5qzT1hM49Ib9F-1">
          <mxGeometry x="1045" y="740.0000000000001" width="10" height="43" as="geometry" />
        </mxCell>
        <mxCell id="2X6hgwf5qzT1hM49Ib9F-33" value="" style="endArrow=classic;html=1;dashed=1;" edge="1" parent="2X6hgwf5qzT1hM49Ib9F-1">
          <mxGeometry width="50" height="50" relative="1" as="geometry">
            <mxPoint x="1057" y="741" as="sourcePoint" />
            <mxPoint x="1057" y="781" as="targetPoint" />
            <Array as="points">
              <mxPoint x="1077" y="761.0000000000001" />
            </Array>
          </mxGeometry>
        </mxCell>
        <mxCell id="2X6hgwf5qzT1hM49Ib9F-34" value="&lt;div style=&quot;text-align: center&quot;&gt;&lt;font face=&quot;helvetica&quot;&gt;&lt;span style=&quot;font-size: 11px ; background-color: rgb(255 , 255 , 255)&quot;&gt;取bucket消息队列&lt;/span&gt;&lt;/font&gt;&lt;/div&gt;" style="text;whiteSpace=wrap;html=1;" vertex="1" parent="2X6hgwf5qzT1hM49Ib9F-1">
          <mxGeometry x="1077" y="746.5000000000001" width="180" height="30" as="geometry" />
        </mxCell>
        <mxCell id="2X6hgwf5qzT1hM49Ib9F-35" value="" style="rounded=0;whiteSpace=wrap;html=1;" vertex="1" parent="2X6hgwf5qzT1hM49Ib9F-1">
          <mxGeometry x="695" y="831.4300000000001" width="10" height="43" as="geometry" />
        </mxCell>
        <mxCell id="2X6hgwf5qzT1hM49Ib9F-36" value="" style="endArrow=classic;html=1;dashed=1;" edge="1" parent="2X6hgwf5qzT1hM49Ib9F-1">
          <mxGeometry width="50" height="50" relative="1" as="geometry">
            <mxPoint x="707" y="832.4300000000003" as="sourcePoint" />
            <mxPoint x="707" y="872.4300000000003" as="targetPoint" />
            <Array as="points">
              <mxPoint x="727" y="852.4300000000001" />
            </Array>
          </mxGeometry>
        </mxCell>
        <mxCell id="2X6hgwf5qzT1hM49Ib9F-37" value="&lt;div style=&quot;text-align: center&quot;&gt;&lt;font face=&quot;helvetica&quot;&gt;&lt;span style=&quot;font-size: 11px ; background-color: rgb(255 , 255 , 255)&quot;&gt;根据bucket取定时器&lt;/span&gt;&lt;/font&gt;&lt;/div&gt;" style="text;whiteSpace=wrap;html=1;" vertex="1" parent="2X6hgwf5qzT1hM49Ib9F-1">
          <mxGeometry x="726" y="839.4300000000001" width="180" height="30" as="geometry" />
        </mxCell>
        <mxCell id="2X6hgwf5qzT1hM49Ib9F-38" value="" style="endArrow=classic;html=1;dashed=1;" edge="1" parent="2X6hgwf5qzT1hM49Ib9F-1">
          <mxGeometry width="50" height="50" relative="1" as="geometry">
            <mxPoint x="700" y="874" as="sourcePoint" />
            <mxPoint x="414" y="874.4300000000003" as="targetPoint" />
            <Array as="points" />
          </mxGeometry>
        </mxCell>
        <mxCell id="2X6hgwf5qzT1hM49Ib9F-39" value="返回到期定时器结果" style="edgeLabel;html=1;align=center;verticalAlign=middle;resizable=0;points=[];" vertex="1" connectable="0" parent="2X6hgwf5qzT1hM49Ib9F-38">
          <mxGeometry x="0.1378" y="-1" relative="1" as="geometry">
            <mxPoint x="23" y="1" as="offset" />
          </mxGeometry>
        </mxCell>
        <mxCell id="2X6hgwf5qzT1hM49Ib9F-40" value="" style="endArrow=classic;html=1;dashed=1;" edge="1" parent="2X6hgwf5qzT1hM49Ib9F-1">
          <mxGeometry width="50" height="50" relative="1" as="geometry">
            <mxPoint x="1050" y="960" as="sourcePoint" />
            <mxPoint x="414" y="960" as="targetPoint" />
            <Array as="points" />
          </mxGeometry>
        </mxCell>
        <mxCell id="2X6hgwf5qzT1hM49Ib9F-41" value="定时器写回结果" style="edgeLabel;html=1;align=center;verticalAlign=middle;resizable=0;points=[];" vertex="1" connectable="0" parent="2X6hgwf5qzT1hM49Ib9F-40">
          <mxGeometry x="0.1378" y="-1" relative="1" as="geometry">
            <mxPoint x="62" y="1" as="offset" />
          </mxGeometry>
        </mxCell>
        <mxCell id="2X6hgwf5qzT1hM49Ib9F-42" value="" style="rounded=0;whiteSpace=wrap;html=1;" vertex="1" parent="2X6hgwf5qzT1hM49Ib9F-1">
          <mxGeometry x="1045" y="920" width="10" height="40" as="geometry" />
        </mxCell>
        <mxCell id="2X6hgwf5qzT1hM49Ib9F-43" value="" style="endArrow=classic;html=1;dashed=1;" edge="1" parent="2X6hgwf5qzT1hM49Ib9F-1">
          <mxGeometry width="50" height="50" relative="1" as="geometry">
            <mxPoint x="1057" y="924" as="sourcePoint" />
            <mxPoint x="1057" y="960" as="targetPoint" />
            <Array as="points">
              <mxPoint x="1077" y="944" />
            </Array>
          </mxGeometry>
        </mxCell>
        <mxCell id="2X6hgwf5qzT1hM49Ib9F-44" value="&lt;div style=&quot;text-align: center&quot;&gt;&lt;font face=&quot;helvetica&quot;&gt;&lt;span style=&quot;font-size: 11px ; background-color: rgb(255 , 255 , 255)&quot;&gt;写定时器消息队列&lt;/span&gt;&lt;/font&gt;&lt;/div&gt;" style="text;whiteSpace=wrap;html=1;" vertex="1" parent="2X6hgwf5qzT1hM49Ib9F-1">
          <mxGeometry x="1078" y="930" width="180" height="30" as="geometry" />
        </mxCell>
        <mxCell id="2X6hgwf5qzT1hM49Ib9F-45" value="3" style="ellipse;whiteSpace=wrap;html=1;aspect=fixed;fontSize=14;align=center;" vertex="1" parent="2X6hgwf5qzT1hM49Ib9F-1">
          <mxGeometry x="89.13" y="837.9300000000001" width="20" height="20" as="geometry" />
        </mxCell>
        <mxCell id="2X6hgwf5qzT1hM49Ib9F-46" value="" style="rounded=0;whiteSpace=wrap;html=1;" vertex="1" parent="2X6hgwf5qzT1hM49Ib9F-1">
          <mxGeometry x="1044" y="1050" width="10" height="40" as="geometry" />
        </mxCell>
        <mxCell id="2X6hgwf5qzT1hM49Ib9F-47" value="" style="endArrow=classic;html=1;dashed=1;" edge="1" parent="2X6hgwf5qzT1hM49Ib9F-1">
          <mxGeometry width="50" height="50" relative="1" as="geometry">
            <mxPoint x="1056" y="1051" as="sourcePoint" />
            <mxPoint x="1050" y="1091" as="targetPoint" />
            <Array as="points">
              <mxPoint x="1076" y="1071" />
            </Array>
          </mxGeometry>
        </mxCell>
        <mxCell id="2X6hgwf5qzT1hM49Ib9F-48" value="&lt;div style=&quot;text-align: center&quot;&gt;&lt;font face=&quot;helvetica&quot;&gt;&lt;span style=&quot;font-size: 11px ; background-color: rgb(255 , 255 , 255)&quot;&gt;取定时器消息队列&lt;/span&gt;&lt;/font&gt;&lt;/div&gt;" style="text;whiteSpace=wrap;html=1;" vertex="1" parent="2X6hgwf5qzT1hM49Ib9F-1">
          <mxGeometry x="1077" y="1060" width="180" height="30" as="geometry" />
        </mxCell>
        <mxCell id="2X6hgwf5qzT1hM49Ib9F-49" value="" style="endArrow=classic;html=1;dashed=1;" edge="1" parent="2X6hgwf5qzT1hM49Ib9F-1">
          <mxGeometry width="50" height="50" relative="1" as="geometry">
            <mxPoint x="1050" y="1090" as="sourcePoint" />
            <mxPoint x="410" y="1090" as="targetPoint" />
            <Array as="points" />
          </mxGeometry>
        </mxCell>
        <mxCell id="2X6hgwf5qzT1hM49Ib9F-50" value="返回任务消息" style="edgeLabel;html=1;align=center;verticalAlign=middle;resizable=0;points=[];" vertex="1" connectable="0" parent="2X6hgwf5qzT1hM49Ib9F-49">
          <mxGeometry x="0.1378" y="-1" relative="1" as="geometry">
            <mxPoint x="74" y="1" as="offset" />
          </mxGeometry>
        </mxCell>
        <mxCell id="2X6hgwf5qzT1hM49Ib9F-51" value="" style="endArrow=classic;html=1;dashed=1;" edge="1" parent="2X6hgwf5qzT1hM49Ib9F-1">
          <mxGeometry width="50" height="50" relative="1" as="geometry">
            <mxPoint x="410" y="1110" as="sourcePoint" />
            <mxPoint x="170" y="1110" as="targetPoint" />
            <Array as="points" />
          </mxGeometry>
        </mxCell>
        <mxCell id="2X6hgwf5qzT1hM49Ib9F-52" value="上发任务消息" style="edgeLabel;html=1;align=center;verticalAlign=middle;resizable=0;points=[];" vertex="1" connectable="0" parent="2X6hgwf5qzT1hM49Ib9F-51">
          <mxGeometry x="0.1378" y="-1" relative="1" as="geometry">
            <mxPoint x="7" y="1" as="offset" />
          </mxGeometry>
        </mxCell>
        <mxCell id="2X6hgwf5qzT1hM49Ib9F-53" value="4" style="ellipse;whiteSpace=wrap;html=1;aspect=fixed;fontSize=14;align=center;" vertex="1" parent="2X6hgwf5qzT1hM49Ib9F-1">
          <mxGeometry x="89.13" y="1040" width="20" height="20" as="geometry" />
        </mxCell>
        <mxCell id="2X6hgwf5qzT1hM49Ib9F-54" value="Hash(Redis)" style="rounded=0;whiteSpace=wrap;html=1;" vertex="1" parent="2X6hgwf5qzT1hM49Ib9F-1">
          <mxGeometry x="830" y="340" width="80" height="40" as="geometry" />
        </mxCell>
        <mxCell id="2X6hgwf5qzT1hM49Ib9F-55" value="List(Redis)" style="rounded=0;whiteSpace=wrap;html=1;" vertex="1" parent="2X6hgwf5qzT1hM49Ib9F-1">
          <mxGeometry x="1010" y="340" width="80" height="40" as="geometry" />
        </mxCell>
        <mxCell id="2X6hgwf5qzT1hM49Ib9F-56" value="" style="endArrow=none;dashed=1;html=1;entryX=0.5;entryY=1;entryDx=0;entryDy=0;startArrow=none;" edge="1" parent="2X6hgwf5qzT1hM49Ib9F-1">
          <mxGeometry width="50" height="50" relative="1" as="geometry">
            <mxPoint x="1050" y="1150" as="sourcePoint" />
            <mxPoint x="1049.58" y="390" as="targetPoint" />
          </mxGeometry>
        </mxCell>
        <mxCell id="2X6hgwf5qzT1hM49Ib9F-57" value="" style="endArrow=none;dashed=1;html=1;entryX=0.5;entryY=1;entryDx=0;entryDy=0;startArrow=none;" edge="1" parent="2X6hgwf5qzT1hM49Ib9F-1">
          <mxGeometry width="50" height="50" relative="1" as="geometry">
            <mxPoint x="870" y="1140" as="sourcePoint" />
            <mxPoint x="869.5799999999999" y="380" as="targetPoint" />
          </mxGeometry>
        </mxCell>
        <mxCell id="2X6hgwf5qzT1hM49Ib9F-58" value="" style="endArrow=none;dashed=1;html=1;entryX=0.5;entryY=1;entryDx=0;entryDy=0;startArrow=none;" edge="1" parent="2X6hgwf5qzT1hM49Ib9F-1">
          <mxGeometry width="50" height="50" relative="1" as="geometry">
            <mxPoint x="699.8699999999999" y="1150" as="sourcePoint" />
            <mxPoint x="699.5799999999999" y="380" as="targetPoint" />
          </mxGeometry>
        </mxCell>
        <mxCell id="2X6hgwf5qzT1hM49Ib9F-59" value="" style="endArrow=classic;html=1;dashed=1;" edge="1" parent="2X6hgwf5qzT1hM49Ib9F-1">
          <mxGeometry width="50" height="50" relative="1" as="geometry">
            <mxPoint x="414" y="1050" as="sourcePoint" />
            <mxPoint x="1050" y="1050" as="targetPoint" />
            <Array as="points" />
          </mxGeometry>
        </mxCell>
        <mxCell id="2X6hgwf5qzT1hM49Ib9F-60" value="取任务消息队列" style="edgeLabel;html=1;align=center;verticalAlign=middle;resizable=0;points=[];" vertex="1" connectable="0" parent="2X6hgwf5qzT1hM49Ib9F-59">
          <mxGeometry x="0.1378" y="-1" relative="1" as="geometry">
            <mxPoint x="-17" y="-1" as="offset" />
          </mxGeometry>
        </mxCell>
        <mxCell id="2X6hgwf5qzT1hM49Ib9F-61" value="" style="line;strokeWidth=1;html=1;fontSize=14;align=center;dashed=1;dashPattern=1 2;" vertex="1" parent="2X6hgwf5qzT1hM49Ib9F-1">
          <mxGeometry x="100" y="520" width="1110" height="10" as="geometry" />
        </mxCell>
        <mxCell id="2X6hgwf5qzT1hM49Ib9F-62" value="" style="line;strokeWidth=1;html=1;fontSize=14;align=center;dashed=1;dashPattern=1 2;" vertex="1" parent="2X6hgwf5qzT1hM49Ib9F-1">
          <mxGeometry x="100" y="700" width="1110" height="10" as="geometry" />
        </mxCell>
        <mxCell id="2X6hgwf5qzT1hM49Ib9F-63" value="" style="line;strokeWidth=1;html=1;fontSize=14;align=center;dashed=1;dashPattern=1 2;" vertex="1" parent="2X6hgwf5qzT1hM49Ib9F-1">
          <mxGeometry x="100" y="990" width="1110" height="10" as="geometry" />
        </mxCell>
        <mxCell id="2X6hgwf5qzT1hM49Ib9F-64" value="&lt;b&gt;写定时器&lt;br&gt;流程&lt;/b&gt;" style="text;html=1;align=center;verticalAlign=middle;resizable=0;points=[];autosize=1;strokeColor=none;fillColor=none;fontSize=14;" vertex="1" parent="2X6hgwf5qzT1hM49Ib9F-1">
          <mxGeometry x="60" y="446.5" width="70" height="40" as="geometry" />
        </mxCell>
        <mxCell id="2X6hgwf5qzT1hM49Ib9F-65" value="&lt;b&gt;竞主、bucket分配&lt;br&gt;流程&lt;/b&gt;" style="text;html=1;align=center;verticalAlign=middle;resizable=0;points=[];autosize=1;strokeColor=none;fillColor=none;fontSize=14;" vertex="1" parent="2X6hgwf5qzT1hM49Ib9F-1">
          <mxGeometry x="32.25" y="608.5" width="130" height="40" as="geometry" />
        </mxCell>
        <mxCell id="2X6hgwf5qzT1hM49Ib9F-66" value="&lt;b&gt;bucket处理流程&lt;/b&gt;" style="text;html=1;align=center;verticalAlign=middle;resizable=0;points=[];autosize=1;strokeColor=none;fillColor=none;fontSize=14;" vertex="1" parent="2X6hgwf5qzT1hM49Ib9F-1">
          <mxGeometry x="39.13" y="874.4300000000001" width="120" height="20" as="geometry" />
        </mxCell>
        <mxCell id="2X6hgwf5qzT1hM49Ib9F-67" value="&lt;b&gt;到期定时器上发&lt;br&gt;流程&lt;br&gt;&lt;/b&gt;" style="text;html=1;align=center;verticalAlign=middle;resizable=0;points=[];autosize=1;strokeColor=none;fillColor=none;fontSize=14;" vertex="1" parent="2X6hgwf5qzT1hM49Ib9F-1">
          <mxGeometry x="44.13" y="1060" width="110" height="40" as="geometry" />
        </mxCell>
        <mxCell id="2X6hgwf5qzT1hM49Ib9F-68" value="" style="endArrow=classic;html=1;dashed=1;entryX=0.75;entryY=0;entryDx=0;entryDy=0;" edge="1" parent="2X6hgwf5qzT1hM49Ib9F-1" target="2X6hgwf5qzT1hM49Ib9F-35">
          <mxGeometry width="50" height="50" relative="1" as="geometry">
            <mxPoint x="414" y="831" as="sourcePoint" />
            <mxPoint x="700" y="831.0000000000002" as="targetPoint" />
            <Array as="points">
              <mxPoint x="414" y="830" />
            </Array>
          </mxGeometry>
        </mxCell>
        <mxCell id="2X6hgwf5qzT1hM49Ib9F-69" value="根据bucketId取定时器" style="edgeLabel;html=1;align=center;verticalAlign=middle;resizable=0;points=[];" vertex="1" connectable="0" parent="2X6hgwf5qzT1hM49Ib9F-68">
          <mxGeometry x="0.1378" y="-1" relative="1" as="geometry">
            <mxPoint x="-18" as="offset" />
          </mxGeometry>
        </mxCell>
        <mxCell id="2X6hgwf5qzT1hM49Ib9F-70" value="" style="endArrow=classic;html=1;dashed=1;" edge="1" parent="2X6hgwf5qzT1hM49Ib9F-1">
          <mxGeometry width="50" height="50" relative="1" as="geometry">
            <mxPoint x="414" y="920" as="sourcePoint" />
            <mxPoint x="1050" y="920" as="targetPoint" />
            <Array as="points" />
          </mxGeometry>
        </mxCell>
        <mxCell id="2X6hgwf5qzT1hM49Ib9F-71" value="定时器写回redis任务消息队列" style="edgeLabel;html=1;align=center;verticalAlign=middle;resizable=0;points=[];" vertex="1" connectable="0" parent="2X6hgwf5qzT1hM49Ib9F-70">
          <mxGeometry x="0.1378" y="-1" relative="1" as="geometry">
            <mxPoint x="-16" y="-1" as="offset" />
          </mxGeometry>
        </mxCell>
        <mxCell id="2X6hgwf5qzT1hM49Ib9F-72" value="" style="endArrow=classic;html=1;dashed=1;" edge="1" parent="2X6hgwf5qzT1hM49Ib9F-1">
          <mxGeometry width="50" height="50" relative="1" as="geometry">
            <mxPoint x="419" y="741.4300000000003" as="sourcePoint" />
            <mxPoint x="1050" y="741" as="targetPoint" />
            <Array as="points">
              <mxPoint x="419" y="740.4300000000001" />
            </Array>
          </mxGeometry>
        </mxCell>
        <mxCell id="2X6hgwf5qzT1hM49Ib9F-73" value="取bucket消息队列" style="edgeLabel;html=1;align=center;verticalAlign=middle;resizable=0;points=[];" vertex="1" connectable="0" parent="2X6hgwf5qzT1hM49Ib9F-72">
          <mxGeometry x="0.1378" y="-1" relative="1" as="geometry">
            <mxPoint x="-17" y="-2" as="offset" />
          </mxGeometry>
        </mxCell>
        <mxCell id="2X6hgwf5qzT1hM49Ib9F-74" value="" style="endArrow=classic;html=1;dashed=1;" edge="1" parent="2X6hgwf5qzT1hM49Ib9F-1">
          <mxGeometry width="50" height="50" relative="1" as="geometry">
            <mxPoint x="414" y="626" as="sourcePoint" />
            <mxPoint x="1050" y="626" as="targetPoint" />
            <Array as="points">
              <mxPoint x="414" y="625" />
            </Array>
          </mxGeometry>
        </mxCell>
        <mxCell id="2X6hgwf5qzT1hM49Ib9F-75" value="竞主成功写bucket消息队列" style="edgeLabel;html=1;align=center;verticalAlign=middle;resizable=0;points=[];" vertex="1" connectable="0" parent="2X6hgwf5qzT1hM49Ib9F-74">
          <mxGeometry x="0.1378" y="-1" relative="1" as="geometry">
            <mxPoint x="-15" y="-2" as="offset" />
          </mxGeometry>
        </mxCell>
        <mxCell id="2X6hgwf5qzT1hM49Ib9F-76" value="" style="endArrow=classic;html=1;dashed=1;" edge="1" parent="2X6hgwf5qzT1hM49Ib9F-1">
          <mxGeometry width="50" height="50" relative="1" as="geometry">
            <mxPoint x="414" y="542" as="sourcePoint" />
            <mxPoint x="870" y="542" as="targetPoint" />
            <Array as="points">
              <mxPoint x="414" y="541" />
            </Array>
          </mxGeometry>
        </mxCell>
        <mxCell id="2X6hgwf5qzT1hM49Ib9F-77" value="Timer竞主" style="edgeLabel;html=1;align=center;verticalAlign=middle;resizable=0;points=[];" vertex="1" connectable="0" parent="2X6hgwf5qzT1hM49Ib9F-76">
          <mxGeometry x="0.1378" y="-1" relative="1" as="geometry">
            <mxPoint x="-43" y="-5" as="offset" />
          </mxGeometry>
        </mxCell>
      </root>
    </mxGraphModel>
  </diagram>
  <diagram id="q93zPRr2cVq1OUysqMCC" name="Page-7">
    <mxGraphModel dx="1988" dy="1029" grid="1" gridSize="10" guides="1" tooltips="1" connect="1" arrows="1" fold="1" page="1" pageScale="1" pageWidth="827" pageHeight="1169" math="0" shadow="0">
      <root>
        <mxCell id="kYtq8hqSCg1Zeu9AD9op-0" />
        <mxCell id="kYtq8hqSCg1Zeu9AD9op-1" parent="kYtq8hqSCg1Zeu9AD9op-0" />
        <mxCell id="2Mle8VPTQ01Ua3ilmUuF-0" value="" style="endArrow=classic;html=1;dashed=1;" edge="1" parent="kYtq8hqSCg1Zeu9AD9op-1">
          <mxGeometry width="50" height="50" relative="1" as="geometry">
            <mxPoint x="846" y="780.55" as="sourcePoint" />
            <mxPoint x="210" y="780.9800000000002" as="targetPoint" />
            <Array as="points" />
          </mxGeometry>
        </mxCell>
        <mxCell id="2Mle8VPTQ01Ua3ilmUuF-1" value="返回bucket消息结果" style="edgeLabel;html=1;align=center;verticalAlign=middle;resizable=0;points=[];" vertex="1" connectable="0" parent="2Mle8VPTQ01Ua3ilmUuF-0">
          <mxGeometry x="0.1378" y="-1" relative="1" as="geometry">
            <mxPoint x="72" y="1" as="offset" />
          </mxGeometry>
        </mxCell>
        <mxCell id="2Mle8VPTQ01Ua3ilmUuF-2" value="" style="rounded=0;whiteSpace=wrap;html=1;" vertex="1" parent="kYtq8hqSCg1Zeu9AD9op-1">
          <mxGeometry x="841" y="737.5500000000001" width="10" height="43" as="geometry" />
        </mxCell>
        <mxCell id="2Mle8VPTQ01Ua3ilmUuF-3" value="" style="endArrow=classic;html=1;dashed=1;" edge="1" parent="kYtq8hqSCg1Zeu9AD9op-1">
          <mxGeometry width="50" height="50" relative="1" as="geometry">
            <mxPoint x="853" y="738.55" as="sourcePoint" />
            <mxPoint x="853" y="778.55" as="targetPoint" />
            <Array as="points">
              <mxPoint x="873" y="758.5500000000001" />
            </Array>
          </mxGeometry>
        </mxCell>
        <mxCell id="2Mle8VPTQ01Ua3ilmUuF-4" value="&lt;div style=&quot;text-align: center&quot;&gt;&lt;font face=&quot;helvetica&quot;&gt;&lt;span style=&quot;font-size: 11px ; background-color: rgb(255 , 255 , 255)&quot;&gt;取bucket消息队列&lt;/span&gt;&lt;/font&gt;&lt;/div&gt;" style="text;whiteSpace=wrap;html=1;" vertex="1" parent="kYtq8hqSCg1Zeu9AD9op-1">
          <mxGeometry x="873" y="744.0500000000001" width="180" height="30" as="geometry" />
        </mxCell>
        <mxCell id="2Mle8VPTQ01Ua3ilmUuF-5" value="" style="rounded=0;whiteSpace=wrap;html=1;" vertex="1" parent="kYtq8hqSCg1Zeu9AD9op-1">
          <mxGeometry x="491" y="828.98" width="10" height="43" as="geometry" />
        </mxCell>
        <mxCell id="2Mle8VPTQ01Ua3ilmUuF-6" value="" style="endArrow=classic;html=1;dashed=1;" edge="1" parent="kYtq8hqSCg1Zeu9AD9op-1">
          <mxGeometry width="50" height="50" relative="1" as="geometry">
            <mxPoint x="503" y="829.9800000000002" as="sourcePoint" />
            <mxPoint x="503" y="869.9800000000002" as="targetPoint" />
            <Array as="points">
              <mxPoint x="523" y="849.98" />
            </Array>
          </mxGeometry>
        </mxCell>
        <mxCell id="2Mle8VPTQ01Ua3ilmUuF-7" value="&lt;div style=&quot;text-align: center&quot;&gt;&lt;font face=&quot;helvetica&quot;&gt;&lt;span style=&quot;font-size: 11px ; background-color: rgb(255 , 255 , 255)&quot;&gt;根据bucket取定时器&lt;/span&gt;&lt;/font&gt;&lt;/div&gt;" style="text;whiteSpace=wrap;html=1;" vertex="1" parent="kYtq8hqSCg1Zeu9AD9op-1">
          <mxGeometry x="522" y="836.98" width="180" height="30" as="geometry" />
        </mxCell>
        <mxCell id="2Mle8VPTQ01Ua3ilmUuF-8" value="" style="endArrow=classic;html=1;dashed=1;" edge="1" parent="kYtq8hqSCg1Zeu9AD9op-1">
          <mxGeometry width="50" height="50" relative="1" as="geometry">
            <mxPoint x="496" y="871.55" as="sourcePoint" />
            <mxPoint x="210" y="871.9800000000002" as="targetPoint" />
            <Array as="points" />
          </mxGeometry>
        </mxCell>
        <mxCell id="2Mle8VPTQ01Ua3ilmUuF-9" value="返回到期定时器结果" style="edgeLabel;html=1;align=center;verticalAlign=middle;resizable=0;points=[];" vertex="1" connectable="0" parent="2Mle8VPTQ01Ua3ilmUuF-8">
          <mxGeometry x="0.1378" y="-1" relative="1" as="geometry">
            <mxPoint x="23" y="1" as="offset" />
          </mxGeometry>
        </mxCell>
        <mxCell id="2Mle8VPTQ01Ua3ilmUuF-10" value="" style="endArrow=classic;html=1;dashed=1;" edge="1" parent="kYtq8hqSCg1Zeu9AD9op-1">
          <mxGeometry width="50" height="50" relative="1" as="geometry">
            <mxPoint x="846" y="957.55" as="sourcePoint" />
            <mxPoint x="210" y="957.55" as="targetPoint" />
            <Array as="points" />
          </mxGeometry>
        </mxCell>
        <mxCell id="2Mle8VPTQ01Ua3ilmUuF-11" value="定时器写回结果" style="edgeLabel;html=1;align=center;verticalAlign=middle;resizable=0;points=[];" vertex="1" connectable="0" parent="2Mle8VPTQ01Ua3ilmUuF-10">
          <mxGeometry x="0.1378" y="-1" relative="1" as="geometry">
            <mxPoint x="62" y="1" as="offset" />
          </mxGeometry>
        </mxCell>
        <mxCell id="2Mle8VPTQ01Ua3ilmUuF-12" value="" style="rounded=0;whiteSpace=wrap;html=1;" vertex="1" parent="kYtq8hqSCg1Zeu9AD9op-1">
          <mxGeometry x="841" y="917.55" width="10" height="40" as="geometry" />
        </mxCell>
        <mxCell id="2Mle8VPTQ01Ua3ilmUuF-13" value="" style="endArrow=classic;html=1;dashed=1;" edge="1" parent="kYtq8hqSCg1Zeu9AD9op-1">
          <mxGeometry width="50" height="50" relative="1" as="geometry">
            <mxPoint x="853" y="921.55" as="sourcePoint" />
            <mxPoint x="853" y="957.55" as="targetPoint" />
            <Array as="points">
              <mxPoint x="873" y="941.55" />
            </Array>
          </mxGeometry>
        </mxCell>
        <mxCell id="2Mle8VPTQ01Ua3ilmUuF-14" value="&lt;div style=&quot;text-align: center&quot;&gt;&lt;font face=&quot;helvetica&quot;&gt;&lt;span style=&quot;font-size: 11px ; background-color: rgb(255 , 255 , 255)&quot;&gt;写定时器消息队列&lt;/span&gt;&lt;/font&gt;&lt;/div&gt;" style="text;whiteSpace=wrap;html=1;" vertex="1" parent="kYtq8hqSCg1Zeu9AD9op-1">
          <mxGeometry x="874" y="927.55" width="180" height="30" as="geometry" />
        </mxCell>
        <mxCell id="2Mle8VPTQ01Ua3ilmUuF-15" value="3" style="ellipse;whiteSpace=wrap;html=1;aspect=fixed;fontSize=14;align=center;" vertex="1" parent="kYtq8hqSCg1Zeu9AD9op-1">
          <mxGeometry x="89.13" y="837.9300000000001" width="20" height="20" as="geometry" />
        </mxCell>
        <mxCell id="2Mle8VPTQ01Ua3ilmUuF-16" value="&lt;b&gt;bucket处理流程&lt;/b&gt;" style="text;html=1;align=center;verticalAlign=middle;resizable=0;points=[];autosize=1;strokeColor=none;fillColor=none;fontSize=14;" vertex="1" parent="kYtq8hqSCg1Zeu9AD9op-1">
          <mxGeometry x="39.13" y="874.4300000000001" width="120" height="20" as="geometry" />
        </mxCell>
        <mxCell id="2Mle8VPTQ01Ua3ilmUuF-17" value="" style="endArrow=classic;html=1;dashed=1;entryX=0.75;entryY=0;entryDx=0;entryDy=0;" edge="1" parent="kYtq8hqSCg1Zeu9AD9op-1" target="2Mle8VPTQ01Ua3ilmUuF-5">
          <mxGeometry width="50" height="50" relative="1" as="geometry">
            <mxPoint x="210" y="828.55" as="sourcePoint" />
            <mxPoint x="496" y="828.5500000000002" as="targetPoint" />
            <Array as="points">
              <mxPoint x="210" y="827.55" />
            </Array>
          </mxGeometry>
        </mxCell>
        <mxCell id="2Mle8VPTQ01Ua3ilmUuF-18" value="根据bucketId取定时器" style="edgeLabel;html=1;align=center;verticalAlign=middle;resizable=0;points=[];" vertex="1" connectable="0" parent="2Mle8VPTQ01Ua3ilmUuF-17">
          <mxGeometry x="0.1378" y="-1" relative="1" as="geometry">
            <mxPoint x="-18" as="offset" />
          </mxGeometry>
        </mxCell>
        <mxCell id="2Mle8VPTQ01Ua3ilmUuF-19" value="" style="endArrow=classic;html=1;dashed=1;" edge="1" parent="kYtq8hqSCg1Zeu9AD9op-1">
          <mxGeometry width="50" height="50" relative="1" as="geometry">
            <mxPoint x="210" y="917.55" as="sourcePoint" />
            <mxPoint x="846" y="917.55" as="targetPoint" />
            <Array as="points" />
          </mxGeometry>
        </mxCell>
        <mxCell id="2Mle8VPTQ01Ua3ilmUuF-20" value="定时器写回redis任务消息队列" style="edgeLabel;html=1;align=center;verticalAlign=middle;resizable=0;points=[];" vertex="1" connectable="0" parent="2Mle8VPTQ01Ua3ilmUuF-19">
          <mxGeometry x="0.1378" y="-1" relative="1" as="geometry">
            <mxPoint x="-16" y="-1" as="offset" />
          </mxGeometry>
        </mxCell>
        <mxCell id="2Mle8VPTQ01Ua3ilmUuF-21" value="" style="endArrow=classic;html=1;dashed=1;" edge="1" parent="kYtq8hqSCg1Zeu9AD9op-1">
          <mxGeometry width="50" height="50" relative="1" as="geometry">
            <mxPoint x="215" y="738.9800000000002" as="sourcePoint" />
            <mxPoint x="846" y="738.55" as="targetPoint" />
            <Array as="points">
              <mxPoint x="215" y="737.98" />
            </Array>
          </mxGeometry>
        </mxCell>
        <mxCell id="2Mle8VPTQ01Ua3ilmUuF-22" value="取bucket消息队列" style="edgeLabel;html=1;align=center;verticalAlign=middle;resizable=0;points=[];" vertex="1" connectable="0" parent="2Mle8VPTQ01Ua3ilmUuF-21">
          <mxGeometry x="0.1378" y="-1" relative="1" as="geometry">
            <mxPoint x="-17" y="-2" as="offset" />
          </mxGeometry>
        </mxCell>
        <mxCell id="_cTG0oQCz2JoeE3Th69o-0" value="Timer" style="rounded=0;whiteSpace=wrap;html=1;" vertex="1" parent="kYtq8hqSCg1Zeu9AD9op-1">
          <mxGeometry x="170" y="660" width="80" height="40" as="geometry" />
        </mxCell>
        <mxCell id="_cTG0oQCz2JoeE3Th69o-1" value="ZSet(Redis)" style="rounded=0;whiteSpace=wrap;html=1;" vertex="1" parent="kYtq8hqSCg1Zeu9AD9op-1">
          <mxGeometry x="457.75" y="660" width="80" height="40" as="geometry" />
        </mxCell>
        <mxCell id="_cTG0oQCz2JoeE3Th69o-3" value="List(Redis)" style="rounded=0;whiteSpace=wrap;html=1;" vertex="1" parent="kYtq8hqSCg1Zeu9AD9op-1">
          <mxGeometry x="807.75" y="660" width="80" height="40" as="geometry" />
        </mxCell>
        <mxCell id="-A7BdCbC1-w6l2XUDKt9-0" value="" style="endArrow=none;dashed=1;html=1;" edge="1" parent="kYtq8hqSCg1Zeu9AD9op-1">
          <mxGeometry width="50" height="50" relative="1" as="geometry">
            <mxPoint x="209.5" y="1010" as="sourcePoint" />
            <mxPoint x="209.5" y="700" as="targetPoint" />
          </mxGeometry>
        </mxCell>
        <mxCell id="-A7BdCbC1-w6l2XUDKt9-1" value="" style="endArrow=none;dashed=1;html=1;" edge="1" parent="kYtq8hqSCg1Zeu9AD9op-1">
          <mxGeometry width="50" height="50" relative="1" as="geometry">
            <mxPoint x="495.5" y="1010" as="sourcePoint" />
            <mxPoint x="495.5" y="700" as="targetPoint" />
          </mxGeometry>
        </mxCell>
        <mxCell id="-A7BdCbC1-w6l2XUDKt9-2" value="" style="endArrow=none;dashed=1;html=1;" edge="1" parent="kYtq8hqSCg1Zeu9AD9op-1">
          <mxGeometry width="50" height="50" relative="1" as="geometry">
            <mxPoint x="845.5" y="1010" as="sourcePoint" />
            <mxPoint x="845.5" y="700" as="targetPoint" />
          </mxGeometry>
        </mxCell>
      </root>
    </mxGraphModel>
  </diagram>
</mxfile>
